<svg width="218" height="231" viewBox="0 0 218 231" fill="none" xmlns="http://www.w3.org/2000/svg">
<g clip-path="url(#clip0_11490_6874)">
<path d="M212.741 9.49561L209.859 37.1713H195.436L192.555 9.49561H212.741Z" fill="#263238"/>
<path opacity="0.3" d="M212.741 9.49561L209.859 37.1713H195.436L192.555 9.49561H212.741Z" fill="white"/>
<path d="M205.335 31.2233H199.969V230.808H205.335V31.2233Z" fill="#263238"/>
<path opacity="0.3" d="M205.335 31.2233H199.969V230.808H205.335V31.2233Z" fill="white"/>
<path d="M208.343 35.4862H196.961L194.434 11.1805H210.87L208.343 35.4862Z" fill="url(#paint0_linear_11490_6874)"/>
<path opacity="0.4" d="M208.343 35.4862H196.961L194.434 11.1805H210.87L208.343 35.4862Z" fill="white"/>
<path d="M201.157 35.8654H200.374L199.531 10.3381H200.315L201.157 35.8654Z" fill="#263238"/>
<path opacity="0.3" d="M201.157 35.8654H200.374L199.531 10.3381H200.315L201.157 35.8654Z" fill="white"/>
<path opacity="0.2" d="M212.744 9.49561L209.863 37.1713H200.798L199.711 9.49561H212.744Z" fill="white"/>
<path d="M202.649 0.598877C202.649 0.598877 194.098 9.04058 187.543 9.04058L189.573 10.3717H215.724L217.755 9.04058C211.2 9.04058 202.649 0.598877 202.649 0.598877Z" fill="#263238"/>
<path opacity="0.4" d="M217.755 9.04058L215.724 10.3717H189.573L187.543 9.04058C194.098 9.04058 202.649 0.598877 202.649 0.598877C202.649 0.598877 211.2 9.04058 217.755 9.04058Z" fill="white"/>
<path opacity="0.2" d="M217.754 9.04058L215.724 10.3717H198.739C198.226 9.53765 197.863 8.93106 197.863 8.93106C202.421 6.81642 202.649 0.598877 202.649 0.598877C202.649 0.598877 211.2 9.04058 217.754 9.04058Z" fill="white"/>
<path d="M198.05 227.11H207.266C208.412 227.11 209.347 228.045 209.347 229.191V230.8H195.969V229.191C195.969 228.045 196.904 227.11 198.05 227.11Z" fill="#263238"/>
<path opacity="0.5" d="M198.05 227.11H207.266C208.412 227.11 209.347 228.045 209.347 229.191V230.8H195.969V229.191C195.969 228.045 196.904 227.11 198.05 227.11Z" fill="white"/>
<path d="M147.672 2.41028H123.468C119.348 2.41028 116.012 5.74652 116.012 9.86628V30.9284C116.012 35.0482 119.348 38.3844 123.468 38.3844H133.038L135.566 45.0316L138.093 38.3844H147.664C151.784 38.3844 155.12 35.0482 155.12 30.9284V9.86628C155.12 5.74652 151.784 2.41028 147.664 2.41028H147.672Z" fill="url(#paint1_linear_11490_6874)"/>
<path opacity="0.7" d="M147.672 2.41028H123.468C119.348 2.41028 116.012 5.74652 116.012 9.86628V30.9284C116.012 35.0482 119.348 38.3844 123.468 38.3844H133.038L135.566 45.0316L138.093 38.3844H147.664C151.784 38.3844 155.12 35.0482 155.12 30.9284V9.86628C155.12 5.74652 151.784 2.41028 147.664 2.41028H147.672Z" fill="white"/>
<path d="M144.067 28.7993C148.759 24.1076 148.759 16.5008 144.067 11.8091C139.376 7.11744 131.769 7.11743 127.077 11.8091C122.385 16.5008 122.385 24.1076 127.077 28.7993C131.769 33.491 139.376 33.491 144.067 28.7993Z" fill="url(#paint2_linear_11490_6874)"/>
<path d="M134.307 25.6713C133.987 25.6713 133.675 25.5281 133.464 25.2838L128.755 19.7318C128.359 19.2684 128.418 18.5691 128.881 18.1732C129.345 17.7772 130.044 17.8362 130.44 18.2996L134.315 22.8574L140.71 15.3256C141.106 14.8622 141.805 14.8032 142.268 15.1992C142.732 15.5952 142.791 16.2944 142.395 16.7578L135.158 25.2838C134.947 25.5281 134.644 25.6713 134.315 25.6713H134.307Z" fill="white"/>
<path d="M180.553 230.808H186.122L174.749 166.611H169.18L180.553 230.808Z" fill="#263238"/>
<path d="M58.2642 230.808H63.8246L52.451 166.611H46.8906L58.2642 230.808Z" fill="#263238"/>
<path opacity="0.3" d="M180.553 230.808H186.122L174.749 166.611H169.18L180.553 230.808Z" fill="white"/>
<path opacity="0.3" d="M58.2642 230.808H63.8246L52.451 166.611H46.8906L58.2642 230.808Z" fill="white"/>
<path d="M9.87526 204.346L177.656 204.346V198.709L9.87526 198.709V204.346Z" fill="#263238"/>
<path opacity="0.5" d="M9.87526 204.346L177.656 204.346V198.709L9.87526 198.709V204.346Z" fill="white"/>
<path d="M129.256 230.808H123.688L135.061 166.611H140.63L129.256 230.808Z" fill="#263238"/>
<path d="M6.95884 230.808H1.39844L12.772 166.611H18.3324L6.95884 230.808Z" fill="#263238"/>
<path opacity="0.3" d="M129.256 230.808H123.688L135.061 166.611H140.63L129.256 230.808Z" fill="white"/>
<path opacity="0.3" d="M6.95884 230.808H1.39844L12.772 166.611H18.3324L6.95884 230.808Z" fill="white"/>
<path d="M57.418 164.117H62.9531L72.2204 112.599H66.6769L57.418 164.117Z" fill="#263238"/>
<path opacity="0.3" d="M57.418 164.117H62.9531L72.2204 112.599H66.6769L57.418 164.117Z" fill="white"/>
<path d="M167.344 164.117H172.879L182.146 112.599H176.611L167.344 164.117Z" fill="#263238"/>
<path d="M112.379 164.117H117.914L127.181 112.599H121.646L112.379 164.117Z" fill="#263238"/>
<path opacity="0.3" d="M167.344 164.117H172.879L182.146 112.599H176.611L167.344 164.117Z" fill="white"/>
<path opacity="0.3" d="M112.379 164.117H117.914L127.181 112.599H121.646L112.379 164.117Z" fill="white"/>
<path d="M47.8516 116.121H193.239L194.966 106.474H49.5787L47.8516 116.121Z" fill="#263238"/>
<path d="M44.7109 133.56H190.099L191.834 123.922H46.4465L44.7109 133.56Z" fill="#263238"/>
<path d="M41.5781 150.999H186.966L188.701 141.361H43.3136L41.5781 150.999Z" fill="#263238"/>
<path d="M0.235596 169.273L185.523 169.273V162.6L0.235596 162.6V169.273Z" fill="#263238"/>
<path opacity="0.5" d="M47.8516 116.121H193.239L194.966 106.474H49.5787L47.8516 116.121Z" fill="white"/>
<path opacity="0.5" d="M44.7109 133.56H190.099L191.834 123.922H46.4465L44.7109 133.56Z" fill="white"/>
<path opacity="0.5" d="M41.5781 150.999H186.966L188.701 141.361H43.3136L41.5781 150.999Z" fill="white"/>
<path opacity="0.5" d="M0.235596 169.273L185.523 169.273V162.6L0.235596 162.6V169.273Z" fill="white"/>
<path opacity="0.2" d="M0.233719 169.273L140.027 169.273V162.6L0.233719 162.6V169.273Z" fill="white"/>
<path d="M125.704 93.8621C121.795 98.0072 112.393 108.134 106.58 107.957C100.455 107.308 93.5887 97.8808 90.3283 93.0702C89.014 91.0567 91.6341 88.7651 93.4454 90.3153C97.4388 93.6347 103.109 98.8328 106.866 100.349C106.293 100.316 106.192 100.467 106.715 100.147C111.441 96.8024 115.443 92.2109 119.562 88.1164C123.48 84.2999 129.251 89.7002 125.704 93.8621Z" fill="#E9B376"/>
<path d="M123.563 86.3219V98.3947C123.563 98.3947 121.01 100.518 117.876 102.86C116.309 104.031 114.599 105.253 112.998 106.289C110.563 107.873 108.373 109.035 107.261 108.968C103.942 108.766 96.7383 103.618 96.7383 103.618L101.473 95.7325C101.473 95.7325 106.916 99.0603 107.261 99.2878C107.606 99.5068 119.022 86.3977 123.563 86.3219Z" fill="url(#paint3_linear_11490_6874)"/>
<path opacity="0.2" d="M117.878 102.86C116.311 104.031 114.601 105.253 113 106.289C113.379 99.3637 116.64 96.7014 116.64 96.7014C117.651 98.6391 117.979 100.804 117.878 102.86Z" fill="black"/>
<path d="M128.172 54.5686C122.359 59.3118 123.041 72.96 129.579 81.9157C129.579 81.9157 143.531 83.0867 151.281 79.6157C159.032 76.1446 150.464 54.0462 142.275 52.3107C134.086 50.5752 128.181 54.5686 128.181 54.5686H128.172Z" fill="#263238"/>
<path d="M128.511 68.7562C126.379 65.0829 124.265 55.1669 133.128 52.1002C144.189 48.2754 149.143 55.327 150.104 62.3196C151.056 69.3122 147.121 74.5946 139.808 74.0723C132.496 73.5499 129.985 71.2921 128.511 68.7478V68.7562Z" fill="#263238"/>
<path d="M116.637 96.7015C115.559 101.815 117.454 113.863 117.766 122.936L143.816 125.936C143.816 123.088 144.346 118.96 146.048 112.397C147.026 108.555 148.416 103.871 150.328 98.1337C150.606 97.2828 150.901 96.4066 151.213 95.5051C152.586 91.4949 150.219 87.4425 146.124 86.8022C145.037 86.6253 143.866 86.4737 142.678 86.3557C138.036 85.8839 134.228 85.5301 130.083 85.6902C128.71 85.7323 127.278 85.8418 125.904 85.9513C120.976 86.3642 117.648 91.9077 116.637 96.693V96.7015Z" fill="#263238"/>
<path d="M142.545 72.1345C141.231 76.1279 139.495 83.4828 141.98 86.322C141.98 86.322 138.172 85.5385 129.756 90.1469C127.574 86.6337 129.385 85.648 129.385 85.648C134.044 84.8139 134.356 81.4693 133.968 78.2931L142.545 72.1261V72.1345Z" fill="#EBB376"/>
<path opacity="0.2" d="M139.052 74.6451L133.98 78.2931C134.073 79.0429 134.124 79.8096 134.082 80.5425C135.842 80.3825 138.454 78.6217 138.867 76.8356C139.078 75.9426 139.145 75.0748 139.052 74.6536V74.6451Z" fill="black"/>
<path d="M144.281 62.8082C144.373 69.4722 144.55 72.2946 141.458 75.9509C136.8 81.4524 128.594 80.1044 126.513 73.6004C124.642 67.7451 124.811 57.8291 131.104 54.695C137.305 51.6115 144.197 56.1357 144.281 62.8082Z" fill="#FFB573"/>
<path d="M138.63 56.5738C136.785 58.8906 140.989 66.1865 144.309 67.4334C150.754 65.3103 144.149 49.6654 138.63 56.5738Z" fill="#263238"/>
<path d="M130.742 53.4651C128.291 54.5434 125.991 59.1518 125.688 60.8705C129.335 61.1401 138.721 56.9277 138.721 56.9277C138.721 56.9277 145.343 58.1493 141.779 55.1585C138.215 52.1676 130.734 53.4651 130.734 53.4651H130.742Z" fill="#263238"/>
<path d="M133.199 65.521C133.241 66.0602 132.989 66.5235 132.635 66.5488C132.281 66.5741 131.961 66.1613 131.919 65.6221C131.877 65.0829 132.129 64.6195 132.483 64.5942C132.837 64.569 133.157 64.9818 133.199 65.521Z" fill="#263238"/>
<path d="M127.094 65.9759C127.136 66.5151 126.883 66.9785 126.529 67.0038C126.175 67.029 125.855 66.6162 125.813 66.077C125.771 65.5378 126.024 65.0745 126.378 65.0492C126.731 65.0239 127.052 65.4367 127.094 65.9759Z" fill="#263238"/>
<path d="M126.538 65.0661L125.215 64.7881C125.215 64.7881 125.956 65.7485 126.538 65.0661Z" fill="#263238"/>
<path d="M129.68 66.6499C129.68 66.6499 128.938 69.0426 128.012 70.2389C128.778 70.8539 129.966 70.4579 129.966 70.4579L129.68 66.6499Z" fill="#ED893E"/>
<path d="M133.078 72.3536C132.833 72.4126 132.572 72.4547 132.286 72.4715C132.201 72.4715 132.126 72.4126 132.117 72.3283C132.117 72.2441 132.185 72.1598 132.26 72.1598C134.636 71.9829 135.614 70.2389 135.622 70.2221C135.664 70.1463 135.757 70.121 135.841 70.1631C135.917 70.2052 135.942 70.2979 135.9 70.3822C135.858 70.4496 135.041 71.9071 133.069 72.362L133.078 72.3536Z" fill="#263238"/>
<path d="M146.539 68.7563C146.168 70.0874 145.208 71.1236 144.213 71.6628C142.714 72.4716 141.585 71.2163 141.686 69.6072C141.779 68.1497 142.672 65.9761 144.331 65.8328C145.966 65.6896 146.968 67.2398 146.539 68.7647V68.7563Z" fill="#FFB573"/>
<path d="M136.19 63.9287C136.055 63.9624 135.921 63.9034 135.845 63.7854C135.087 62.5217 133.191 62.3785 133.174 62.3701C132.997 62.3616 132.871 62.2016 132.879 62.0331C132.888 61.8561 133.039 61.7298 133.216 61.7382C133.309 61.7382 135.457 61.9151 136.384 63.4569C136.477 63.6085 136.426 63.8023 136.275 63.895C136.241 63.9118 136.216 63.9287 136.182 63.9287H136.19Z" fill="#263238"/>
<path d="M125.68 63.1367C125.57 63.162 125.461 63.1367 125.376 63.044C125.259 62.9177 125.259 62.7155 125.385 62.5975C126.657 61.3759 128.089 61.6961 128.148 61.7129C128.317 61.755 128.426 61.9235 128.384 62.092C128.342 62.2605 128.174 62.37 128.005 62.3279C127.955 62.3195 126.834 62.0836 125.823 63.0525C125.781 63.0946 125.73 63.1199 125.671 63.1367H125.68Z" fill="#263238"/>
<path d="M132.647 64.6026L131.324 64.3246C131.324 64.3246 132.066 65.285 132.647 64.6026Z" fill="#263238"/>
<path d="M108.975 89.2201L109.607 91.1915C109.843 91.9329 110.424 92.5142 111.166 92.7501L114.637 93.8622C116.027 94.3087 117.543 94.0475 118.706 93.1798L119.431 92.6406C118.605 89.2959 115.252 86.2882 115.252 86.2882L114.393 85.3278C113.626 84.4685 112.387 84.3674 111.545 85.1003L109.616 86.7853C108.95 87.3666 108.697 88.3355 108.984 89.2285L108.975 89.2201Z" fill="#EBB376"/>
<path d="M85.6433 91.0231L86.2752 92.9945C86.5111 93.7359 87.0924 94.3172 87.8338 94.5531L91.3049 95.6651C92.695 96.1117 94.2114 95.8505 95.3741 94.9827L96.0986 94.4435C95.273 91.0989 91.9199 88.0912 91.9199 88.0912L91.0605 87.1308C90.2939 86.2714 89.0554 86.1703 88.2129 86.9033L86.2836 88.5883C85.6181 89.1696 85.3653 90.1384 85.6518 91.0315L85.6433 91.0231Z" fill="#EBB376"/>
<path opacity="0.2" d="M135.998 101.605C137.674 106.542 141.946 110.223 146.04 112.405C147.018 108.564 148.408 103.879 150.32 98.142C147.751 94.553 144.153 92.0003 139.578 92.6827C139.578 92.6827 134.296 96.6087 135.998 101.605Z" fill="black"/>
<path d="M43.5469 199.552L47.9447 201.33C47.9447 201.33 85.3173 144.959 88.7715 147.082C101.299 154.757 127.054 168.473 139.245 160.166C151.436 151.867 144.199 129.963 144.199 129.963C144.199 129.963 120.5 121.639 117.568 126.787C116.995 127.781 116.194 129.794 115.554 131.521C114.939 133.147 114.467 134.529 114.467 134.529C114.467 134.529 114.467 134.529 114.45 134.521C113.734 134.184 90.4986 123.004 79.5547 127.604C68.4423 132.288 43.5469 199.552 43.5469 199.552Z" fill="#EBB376"/>
<path d="M124.575 163.173C124.575 163.173 112.822 163.94 96.7221 158.472C96.7221 158.472 92.754 203.36 90.0918 227.725L84.6914 226.966C84.6914 226.966 75.5168 160.469 77.3365 152.356C79.1479 144.251 88.9628 143.712 88.9628 143.712C88.9628 143.712 107.75 157.495 124.583 163.173H124.575Z" fill="#EBB376"/>
<path d="M124.576 163.173C124.314 163.123 112.823 163.603 101.07 160.267L102.604 153.881C108.526 157.782 116.783 160.166 124.584 163.173H124.576Z" fill="url(#paint4_linear_11490_6874)"/>
<path opacity="0.4" d="M124.576 163.173C124.314 163.123 112.823 163.603 101.07 160.267L102.604 153.881C108.526 157.782 116.783 160.166 124.584 163.173H124.576Z" fill="white"/>
<path d="M101.611 153.215L100.195 160.326L102.344 161.05L103.986 154.782L101.611 153.215Z" fill="url(#paint5_linear_11490_6874)"/>
<path opacity="0.6" d="M101.611 153.215L100.195 160.326L102.344 161.05L103.986 154.782L101.611 153.215Z" fill="white"/>
<path opacity="0.2" d="M79.2808 180.621C78.4299 162.954 78.0676 153.797 80.9742 150.14C83.8808 146.484 88.4302 145.827 88.4302 145.827C92.2045 155.389 108.667 161.354 109.105 161.514C115.247 162.794 124.345 163.123 124.573 163.165C115.255 161.236 108.515 157.773 102.592 153.872C94.395 148.472 88.9525 143.704 88.9525 143.704C88.9525 143.704 79.1376 144.234 77.3262 152.348C76.5849 155.658 77.6885 168.742 79.2303 183.056C79.2977 182.155 79.3061 181.337 79.2724 180.621H79.2808Z" fill="black"/>
<path d="M39.1572 195.853C39.073 195.685 39.0393 195.415 39.3257 195.062C39.4605 194.893 39.6543 194.792 39.8986 194.775C40.3536 194.733 40.9433 194.986 41.4825 195.306C41.0697 194.758 40.7495 194.185 40.8928 193.823C40.9854 193.587 41.2213 193.461 41.6004 193.461C41.9543 193.461 42.2492 193.587 42.4851 193.84C43.2264 194.64 43.0664 196.468 43.0579 196.553C43.0579 196.586 43.0495 196.612 43.0327 196.637C43.0242 196.654 43.0158 196.662 42.999 196.679C42.9821 196.696 42.9568 196.713 42.94 196.721C42.9147 196.73 42.8979 196.738 42.8726 196.738C42.5525 196.738 41.4488 196.738 40.5221 196.553C39.8902 196.426 39.3342 196.216 39.1657 195.862L39.1572 195.853ZM39.9323 195.154C39.7975 195.163 39.7049 195.213 39.629 195.297C39.4437 195.533 39.4942 195.643 39.5111 195.677C39.7049 196.081 41.1118 196.283 42.2997 196.317C41.6257 195.803 40.5473 195.095 39.9323 195.146V195.154ZM41.6089 193.84C41.4993 193.84 41.3056 193.857 41.2635 193.958C41.1371 194.27 41.8616 195.238 42.6873 196.081C42.6873 195.525 42.6283 194.564 42.1986 194.101C42.0807 193.975 41.9459 193.899 41.7858 193.865C41.7268 193.857 41.6678 193.848 41.6089 193.848V193.84Z" fill="#263238"/>
<path d="M79.4258 223.116C79.2826 222.998 79.131 222.771 79.2321 222.324C79.2826 222.114 79.4174 221.937 79.6196 221.819C80.0071 221.591 80.6559 221.566 81.2793 221.617C80.6727 221.305 80.1419 220.917 80.1082 220.53C80.0914 220.277 80.2515 220.067 80.5885 219.898C80.9002 219.746 81.2287 219.73 81.5489 219.864C82.5599 220.269 83.2002 221.987 83.2339 222.072C83.2423 222.097 83.2507 222.131 83.2423 222.164C83.2423 222.164 83.2423 222.19 83.2339 222.206C83.2254 222.232 83.2086 222.257 83.1917 222.274C83.1749 222.291 83.1665 222.299 83.1412 222.308C82.7452 222.501 81.0855 223.285 80.0493 223.285C79.7881 223.285 79.569 223.234 79.4174 223.116H79.4258ZM79.8218 222.156C79.7038 222.223 79.6364 222.308 79.6112 222.417C79.5438 222.712 79.6364 222.788 79.6617 222.813C80.0156 223.1 81.372 222.67 82.4588 222.198C81.6247 222.021 80.3526 221.844 79.8218 222.164V222.156ZM80.7738 220.252C80.6727 220.302 80.5042 220.395 80.5126 220.505C80.5379 220.842 81.6079 221.406 82.7115 221.81C82.4756 221.305 82.0038 220.463 81.4225 220.227C81.3214 220.184 81.2287 220.168 81.1276 220.168C81.0097 220.168 80.8918 220.193 80.7822 220.252H80.7738Z" fill="#263238"/>
<path d="M50.7141 199.434C50.9585 198.878 44.0164 196.199 44.0164 196.199C44.0164 196.199 37.9252 198.507 33.46 197.598C28.9949 196.688 30.1322 200.142 34.6311 202.223C39.1384 204.295 42.5673 205.888 45.7688 207.362C48.9702 208.836 48.2288 205.188 50.7141 199.443V199.434Z" fill="#263238"/>
<path d="M91.3986 221.381C91.3733 220.774 83.9595 221.339 83.9595 221.339C83.9595 221.339 79.4522 226.04 75.0207 227.135C70.5976 228.23 73.1082 230.867 78.0705 230.808C83.0327 230.749 86.8155 230.707 90.3371 230.665C93.8587 230.623 91.6261 227.649 91.3986 221.389V221.381Z" fill="#263238"/>
<path d="M144.198 129.963C144.198 129.963 120.498 121.639 117.567 126.787C116.994 127.781 116.193 129.794 115.553 131.521C114.938 133.147 114.466 134.529 114.466 134.529C114.466 134.529 114.466 134.529 114.449 134.521C114.424 134.504 112.503 133.627 112.503 133.627L104.559 157.327C117.187 164.328 135.04 165.145 142.344 160.166C154.535 151.867 144.189 129.963 144.189 129.963H144.198Z" fill="url(#paint6_linear_11490_6874)"/>
<g opacity="0.4">
<path d="M144.198 129.963C144.198 129.963 120.498 121.639 117.567 126.787C116.994 127.781 116.193 129.794 115.553 131.521C114.938 133.147 114.466 134.529 114.466 134.529C114.466 134.529 114.466 134.529 114.449 134.521C114.424 134.504 112.503 133.627 112.503 133.627L104.559 157.327C117.187 164.328 135.04 165.145 142.344 160.166C154.535 151.867 144.189 129.963 144.189 129.963H144.198Z" fill="white"/>
</g>
<path opacity="0.3" d="M114.469 134.529L128.151 140.334C128.151 140.334 121.133 134.411 115.556 131.521C114.941 133.147 114.469 134.529 114.469 134.529Z" fill="black"/>
<path d="M117.227 127.435L117.707 121.588L144.195 125.11L144.548 130.755L117.227 127.435Z" fill="url(#paint7_linear_11490_6874)"/>
<path opacity="0.4" d="M117.227 127.435L117.707 121.588L144.195 125.11L144.548 130.755L117.227 127.435Z" fill="white"/>
<path d="M117.756 122.161L119.138 122.363L118.708 126.921L117.562 126.787L117.756 122.161Z" fill="#263238"/>
<path d="M120.452 122.549L135.39 124.722L135.002 128.867L120.031 127.081L120.452 122.549Z" fill="#263238"/>
<path d="M144.193 129.963L136.324 129.028L136.703 124.916H136.712L143.814 125.944L144.193 129.963Z" fill="#263238"/>
<path opacity="0.2" d="M117.756 122.161L119.138 122.363L118.708 126.921L117.562 126.787L117.756 122.161Z" fill="black"/>
<path opacity="0.2" d="M120.452 122.549L135.39 124.722L135.002 128.867L120.031 127.081L120.452 122.549Z" fill="black"/>
<path opacity="0.2" d="M144.193 129.963L136.324 129.028L136.703 124.916H136.712L143.814 125.944L144.193 129.963Z" fill="black"/>
<path d="M124.007 127.638L128.258 128.201C128.691 128.259 129.089 127.954 129.147 127.52L129.523 124.68C129.58 124.247 129.275 123.849 128.842 123.791L124.59 123.229C124.157 123.171 123.759 123.476 123.701 123.91L123.326 126.749C123.268 127.183 123.573 127.581 124.007 127.638Z" stroke="white" stroke-width="0.842486" stroke-linecap="round" stroke-linejoin="round"/>
<path d="M127.062 125.708L128.562 125.944" stroke="white" stroke-width="0.842486" stroke-linecap="round" stroke-linejoin="round"/>
<path d="M111.374 131.985L113.581 133.156L106.092 158.616L102.949 157.984L111.374 131.985Z" fill="url(#paint8_linear_11490_6874)"/>
<path opacity="0.6" d="M111.374 131.985L113.581 133.156L106.092 158.616L102.949 157.984L111.374 131.985Z" fill="white"/>
<path d="M109.605 106.289H91.0448C90.3287 106.289 89.6968 105.708 89.6378 104.991L87.0514 80.3571C86.9924 79.641 87.5148 79.0597 88.2309 79.0597H106.791C107.507 79.0597 108.139 79.641 108.198 80.3571L110.784 104.991C110.843 105.708 110.321 106.289 109.605 106.289Z" fill="#263238"/>
<path opacity="0.6" d="M109.605 106.289H91.0448C90.3287 106.289 89.6968 105.708 89.6378 104.991L87.0514 80.3571C86.9924 79.641 87.5148 79.0597 88.2309 79.0597H106.791C107.507 79.0597 108.139 79.641 108.198 80.3571L110.784 104.991C110.843 105.708 110.321 106.289 109.605 106.289Z" fill="white"/>
<path opacity="0.2" d="M108.83 106.289H91.0448C90.3287 106.289 89.6968 105.708 89.6378 104.991L87.0514 80.3571C86.9924 79.641 87.5148 79.0597 88.2309 79.0597H106.016C106.732 79.0597 107.364 79.641 107.423 80.3571L110.009 104.991C110.068 105.708 109.546 106.289 108.83 106.289Z" fill="white"/>
<path d="M98.0124 90.6523C96.9087 90.6523 96.0831 91.5538 96.1842 92.6659C96.2768 93.778 97.2541 94.6794 98.3662 94.6794C99.4783 94.6794 100.295 93.778 100.194 92.6659C99.0907 92.6659 98.1135 91.7644 98.0124 90.6523Z" fill="#263238"/>
<path opacity="0.3" d="M102.023 81.0058H92.2166C91.7364 81.0058 91.2814 80.711 91.0624 80.2644L90.4727 79.0513H103.413L103.034 80.2644C102.899 80.711 102.486 81.0058 102.015 81.0058H102.023Z" fill="black"/>
<path d="M149.353 137.393H145.907C145.907 137.393 141.602 124.47 139.091 113.517C138.342 110.291 137.76 107.232 137.482 104.73C137.069 101.015 137.533 97.7123 138.316 94.9742C139.866 89.5907 142.68 86.364 142.68 86.364L141.981 86.3219C148.502 86.2545 152.024 88.5124 152.462 92.5731C152.908 96.6255 145.688 120.729 145.351 123.947C145.022 127.174 149.353 137.393 149.353 137.393Z" fill="url(#paint9_linear_11490_6874)"/>
<path d="M127.095 85.8669C127.095 85.8669 120.204 96.735 118.35 101.36C116.505 105.985 117.558 119.204 117.558 119.204C117.558 119.204 114.028 103.29 116.303 95.4039C118.578 87.5182 122.495 85.8922 127.095 85.8754V85.8669Z" fill="url(#paint10_linear_11490_6874)"/>
<path d="M150.726 95.6567C147.095 100.872 138.418 113.096 130.962 110.232C127.027 108.437 124.255 105.202 121.618 102.017C119.318 99.1278 117.339 96.1369 115.536 92.9355C114.348 90.804 117.195 88.7146 118.872 90.4502C121.265 92.9355 123.758 95.4293 126.244 97.7377C128.417 99.6922 131.189 102.237 133.708 103.155C133.59 103.079 133.245 103.012 133.144 103.012C133 102.995 133.043 102.995 133.169 102.919C137.398 100.038 140.616 95.0838 143.742 90.9641C146.994 86.4736 153.658 90.9472 150.726 95.6567Z" fill="#E9B376"/>
<path opacity="0.2" d="M149.808 98.7823C149.808 98.7823 143.742 109.128 139.091 113.517C138.342 110.291 137.76 107.232 137.482 104.73C137.069 101.015 137.533 97.7123 138.316 94.9743C140.246 93.3904 142.15 91.8149 143.118 91.0146C145.511 89.0179 149.808 98.7823 149.808 98.7823Z" fill="black"/>
<path d="M150.247 89.2032C153.423 90.9135 152.463 95.505 148.301 100.948C144.139 106.39 136.607 113.745 132.656 112.397C128.705 111.049 124.223 105.792 124.223 105.792L127.104 97.6365C127.104 97.6365 132.782 101.942 133.962 101.723C135.141 101.504 140.921 94.0307 142.589 91.7054C144.257 89.3886 146.81 87.3414 150.255 89.1948L150.247 89.2032Z" fill="url(#paint11_linear_11490_6874)"/>
<path d="M91.0368 89.6834L90.9189 91.301C90.8515 92.1687 90.2027 92.868 89.3434 92.9944L87.1445 93.3229L87.6669 87.3918L89.5035 87.7204C90.4471 87.8805 91.1126 88.7314 91.0452 89.6834H91.0368Z" fill="#FFB573"/>
</g>
<defs>
<linearGradient id="paint0_linear_11490_6874" x1="194.434" y1="12.2566" x2="224.178" y2="18.7328" gradientUnits="userSpaceOnUse">
<stop stop-color="#00969E"/>
<stop offset="1" stop-color="#09C6B2"/>
</linearGradient>
<linearGradient id="paint1_linear_11490_6874" x1="116.012" y1="4.29716" x2="184.187" y2="24.4379" gradientUnits="userSpaceOnUse">
<stop stop-color="#00969E"/>
<stop offset="1" stop-color="#09C6B2"/>
</linearGradient>
<linearGradient id="paint2_linear_11490_6874" x1="119.334" y1="21.0564" x2="157.907" y2="1.27232" gradientUnits="userSpaceOnUse">
<stop stop-color="#00969E"/>
<stop offset="1" stop-color="#09C6B2"/>
</linearGradient>
<linearGradient id="paint3_linear_11490_6874" x1="96.7383" y1="87.3246" x2="141.127" y2="104.251" gradientUnits="userSpaceOnUse">
<stop stop-color="#00969E"/>
<stop offset="1" stop-color="#09C6B2"/>
</linearGradient>
<linearGradient id="paint4_linear_11490_6874" x1="101.07" y1="154.292" x2="127.859" y2="176.116" gradientUnits="userSpaceOnUse">
<stop stop-color="#00969E"/>
<stop offset="1" stop-color="#09C6B2"/>
</linearGradient>
<linearGradient id="paint5_linear_11490_6874" x1="100.195" y1="153.562" x2="107.211" y2="154.655" gradientUnits="userSpaceOnUse">
<stop stop-color="#00969E"/>
<stop offset="1" stop-color="#09C6B2"/>
</linearGradient>
<linearGradient id="paint6_linear_11490_6874" x1="104.559" y1="126.799" x2="177.545" y2="153.672" gradientUnits="userSpaceOnUse">
<stop stop-color="#00969E"/>
<stop offset="1" stop-color="#09C6B2"/>
</linearGradient>
<linearGradient id="paint7_linear_11490_6874" x1="117.227" y1="121.994" x2="144.185" y2="147.865" gradientUnits="userSpaceOnUse">
<stop stop-color="#00969E"/>
<stop offset="1" stop-color="#09C6B2"/>
</linearGradient>
<linearGradient id="paint8_linear_11490_6874" x1="102.949" y1="133.164" x2="122.774" y2="135.712" gradientUnits="userSpaceOnUse">
<stop stop-color="#00969E"/>
<stop offset="1" stop-color="#09C6B2"/>
</linearGradient>
<linearGradient id="paint9_linear_11490_6874" x1="137.328" y1="88.5815" x2="165.79" y2="91.3004" gradientUnits="userSpaceOnUse">
<stop stop-color="#00969E"/>
<stop offset="1" stop-color="#09C6B2"/>
</linearGradient>
<linearGradient id="paint10_linear_11490_6874" x1="115.539" y1="87.3428" x2="137.173" y2="89.7573" gradientUnits="userSpaceOnUse">
<stop stop-color="#00969E"/>
<stop offset="1" stop-color="#09C6B2"/>
</linearGradient>
<linearGradient id="paint11_linear_11490_6874" x1="124.223" y1="89.5413" x2="170.659" y2="106.867" gradientUnits="userSpaceOnUse">
<stop stop-color="#00969E"/>
<stop offset="1" stop-color="#09C6B2"/>
</linearGradient>
<clipPath id="clip0_11490_6874">
<rect width="217.53" height="230.209" fill="white" transform="translate(0.234375 0.598877)"/>
</clipPath>
</defs>
</svg>
