<svg width="218" height="231" viewBox="0 0 218 231" fill="none" xmlns="http://www.w3.org/2000/svg">
<g clip-path="url(#clip0_11490_7118)">
<path d="M198.327 0.598877H58.4094C53.7758 0.598877 50.0195 4.35516 50.0195 8.98876V204.988C50.0195 209.622 53.7758 213.378 58.4094 213.378H198.327C202.96 213.378 206.716 209.622 206.716 204.988V8.98876C206.716 4.35516 202.96 0.598877 198.327 0.598877Z" fill="url(#paint0_linear_11490_7118)"/>
<path opacity="0.6" d="M198.327 0.598877H58.4094C53.7758 0.598877 50.0195 4.35516 50.0195 8.98876V204.988C50.0195 209.622 53.7758 213.378 58.4094 213.378H198.327C202.96 213.378 206.716 209.622 206.716 204.988V8.98876C206.716 4.35516 202.96 0.598877 198.327 0.598877Z" fill="white"/>
<path d="M149.413 57.6566C149.413 64.2035 146.423 70.0539 141.73 73.922C138.098 76.9008 133.448 78.7009 128.369 78.7009C123.29 78.7009 118.65 76.9115 115.018 73.922C110.324 70.0646 107.324 64.2142 107.324 57.6566C107.324 46.0415 116.753 36.6229 128.369 36.6229C139.984 36.6229 149.413 46.0415 149.413 57.6566Z" fill="url(#paint1_linear_11490_7118)"/>
<path opacity="0.7" d="M149.413 57.6566C149.413 64.2035 146.423 70.0539 141.73 73.922C138.098 76.9008 133.448 78.7009 128.369 78.7009C123.29 78.7009 118.65 76.9115 115.018 73.922C110.324 70.0646 107.324 64.2142 107.324 57.6566C107.324 46.0415 116.753 36.6229 128.369 36.6229C139.984 36.6229 149.413 46.0415 149.413 57.6566Z" fill="white"/>
<path d="M128.365 63.2068C132.525 63.2068 135.897 59.8343 135.897 55.6742C135.897 51.514 132.525 48.1415 128.365 48.1415C124.205 48.1415 120.832 51.514 120.832 55.6742C120.832 59.8343 124.205 63.2068 128.365 63.2068Z" fill="white"/>
<path d="M141.728 73.9221C138.096 76.9009 133.446 78.701 128.367 78.701C123.288 78.701 118.648 76.9116 115.016 73.9221C116.987 68.1467 121.048 63.8821 125.924 62.7999C126.716 62.6284 127.531 62.532 128.367 62.532C129.202 62.532 130.017 62.6284 130.81 62.7999C135.696 63.8821 139.746 68.1467 141.728 73.9221Z" fill="white"/>
<g opacity="0.5">
<path d="M116.192 140.216C115.967 140.216 115.753 140.184 115.55 140.109C115.346 140.034 115.185 139.938 115.078 139.831L115.207 139.584C115.314 139.691 115.453 139.777 115.635 139.841C115.817 139.916 116 139.948 116.203 139.948C116.407 139.948 116.546 139.927 116.664 139.873C116.782 139.831 116.868 139.766 116.921 139.681C116.975 139.606 117.007 139.509 117.007 139.413C117.007 139.295 116.975 139.198 116.91 139.134C116.846 139.059 116.75 139.005 116.643 138.963C116.535 138.92 116.418 138.888 116.278 138.855C116.15 138.823 116.01 138.791 115.882 138.759C115.753 138.727 115.625 138.673 115.517 138.62C115.41 138.555 115.314 138.48 115.25 138.384C115.185 138.288 115.153 138.159 115.153 137.998C115.153 137.848 115.196 137.709 115.271 137.591C115.346 137.463 115.475 137.366 115.635 137.291C115.796 137.216 116.01 137.173 116.257 137.173C116.428 137.173 116.589 137.195 116.76 137.248C116.932 137.302 117.071 137.355 117.189 137.441L117.082 137.698C116.953 137.613 116.814 137.548 116.675 137.505C116.535 137.463 116.396 137.441 116.257 137.441C116.075 137.441 115.925 137.463 115.807 137.516C115.689 137.57 115.603 137.634 115.55 137.709C115.496 137.795 115.464 137.88 115.464 137.988C115.464 138.105 115.496 138.202 115.56 138.266C115.625 138.341 115.721 138.395 115.828 138.438C115.935 138.48 116.064 138.513 116.192 138.545C116.321 138.577 116.45 138.609 116.589 138.652C116.718 138.695 116.835 138.738 116.953 138.791C117.06 138.845 117.157 138.93 117.221 139.027C117.285 139.123 117.318 139.252 117.318 139.413C117.318 139.563 117.275 139.691 117.2 139.82C117.125 139.948 116.996 140.045 116.835 140.12C116.675 140.195 116.46 140.238 116.203 140.238L116.192 140.216Z" fill="black"/>
<path d="M118.092 137.441C118.028 137.441 117.974 137.419 117.931 137.377C117.889 137.334 117.867 137.28 117.867 137.227C117.867 137.173 117.889 137.119 117.931 137.077C117.974 137.034 118.028 137.012 118.092 137.012C118.157 137.012 118.21 137.034 118.253 137.077C118.296 137.119 118.317 137.162 118.317 137.227C118.317 137.291 118.296 137.344 118.253 137.387C118.21 137.43 118.157 137.452 118.092 137.452V137.441ZM117.942 140.184V137.934H118.242V140.184H117.942Z" fill="black"/>
<path d="M119.999 140.098C119.785 140.098 119.592 140.055 119.42 139.959C119.249 139.862 119.11 139.734 119.013 139.573C118.917 139.402 118.863 139.22 118.863 139.005C118.863 138.791 118.917 138.598 119.013 138.437C119.11 138.277 119.249 138.148 119.42 138.052C119.592 137.966 119.785 137.912 119.999 137.912C120.203 137.912 120.374 137.955 120.535 138.041C120.696 138.127 120.824 138.245 120.921 138.405C121.017 138.566 121.06 138.77 121.06 139.005C121.06 139.241 121.017 139.434 120.921 139.605C120.824 139.777 120.696 139.895 120.535 139.98C120.374 140.066 120.192 140.109 119.999 140.109V140.098ZM120.053 141.041C119.849 141.041 119.645 141.009 119.463 140.955C119.27 140.891 119.12 140.805 119.003 140.698L119.153 140.463C119.26 140.559 119.388 140.634 119.549 140.688C119.71 140.741 119.871 140.773 120.042 140.773C120.331 140.773 120.535 140.709 120.674 140.57C120.803 140.441 120.878 140.227 120.878 139.948V139.391L120.921 139.005L120.888 138.62V137.934H121.178V139.905C121.178 140.291 121.081 140.58 120.888 140.763C120.696 140.945 120.417 141.03 120.042 141.03L120.053 141.041ZM120.031 139.83C120.192 139.83 120.342 139.798 120.471 139.723C120.599 139.648 120.696 139.552 120.771 139.434C120.846 139.305 120.878 139.166 120.878 139.005C120.878 138.845 120.846 138.695 120.771 138.577C120.696 138.459 120.599 138.362 120.471 138.287C120.342 138.212 120.192 138.18 120.031 138.18C119.871 138.18 119.72 138.212 119.592 138.287C119.463 138.362 119.356 138.459 119.292 138.577C119.217 138.705 119.185 138.845 119.185 139.005C119.185 139.166 119.217 139.316 119.292 139.434C119.367 139.562 119.463 139.659 119.592 139.723C119.72 139.798 119.871 139.83 120.031 139.83Z" fill="black"/>
<path d="M122.03 140.184V137.934H122.32V138.555L122.277 138.437C122.352 138.277 122.459 138.148 122.62 138.052C122.78 137.955 122.962 137.912 123.177 137.912C123.359 137.912 123.52 137.945 123.659 138.02C123.798 138.095 123.905 138.191 123.98 138.341C124.055 138.48 124.098 138.662 124.098 138.877V140.184H123.798V138.909C123.798 138.673 123.734 138.491 123.616 138.373C123.498 138.255 123.327 138.191 123.112 138.191C122.952 138.191 122.812 138.223 122.695 138.287C122.577 138.352 122.48 138.448 122.416 138.566C122.352 138.684 122.32 138.834 122.32 139.005V140.184H122.02H122.03Z" fill="black"/>
<path d="M126.985 140.205C126.792 140.205 126.631 140.173 126.481 140.098C126.342 140.023 126.224 139.916 126.149 139.777C126.074 139.637 126.031 139.455 126.031 139.241V137.934H126.331V139.209C126.331 139.445 126.396 139.627 126.513 139.755C126.631 139.873 126.803 139.937 127.017 139.937C127.178 139.937 127.306 139.905 127.424 139.841C127.542 139.777 127.628 139.68 127.692 139.562C127.756 139.445 127.789 139.295 127.789 139.123V137.944H128.089V140.195H127.799V139.573L127.842 139.68C127.767 139.841 127.66 139.98 127.51 140.066C127.36 140.162 127.188 140.205 126.985 140.205Z" fill="black"/>
<path d="M128.934 141.02V137.934H129.223V138.609L129.191 139.059L129.234 139.509V141.009H128.934V141.02ZM130.091 140.205C129.898 140.205 129.716 140.162 129.566 140.066C129.405 139.98 129.287 139.841 129.191 139.68C129.094 139.509 129.051 139.305 129.051 139.059C129.051 138.812 129.094 138.609 129.191 138.437C129.276 138.266 129.405 138.137 129.566 138.052C129.727 137.966 129.898 137.923 130.102 137.923C130.316 137.923 130.509 137.966 130.68 138.062C130.852 138.159 130.98 138.287 131.077 138.469C131.173 138.641 131.227 138.844 131.227 139.069C131.227 139.294 131.173 139.498 131.077 139.67C130.98 139.841 130.841 139.98 130.68 140.077C130.509 140.173 130.316 140.227 130.102 140.227L130.091 140.205ZM130.069 139.937C130.23 139.937 130.369 139.905 130.498 139.83C130.627 139.755 130.723 139.659 130.798 139.52C130.873 139.38 130.905 139.23 130.905 139.059C130.905 138.887 130.873 138.727 130.798 138.598C130.723 138.469 130.627 138.362 130.498 138.287C130.369 138.212 130.23 138.18 130.069 138.18C129.909 138.18 129.769 138.223 129.641 138.287C129.512 138.352 129.416 138.469 129.341 138.598C129.266 138.727 129.234 138.877 129.234 139.059C129.234 139.241 129.266 139.391 129.341 139.52C129.416 139.648 129.512 139.755 129.641 139.83C129.769 139.905 129.909 139.937 130.069 139.937Z" fill="black"/>
<path d="M132.96 140.184V137.934H133.249V138.555L133.206 138.437C133.281 138.277 133.389 138.148 133.549 138.052C133.71 137.955 133.892 137.912 134.106 137.912C134.289 137.912 134.449 137.945 134.589 138.02C134.728 138.095 134.835 138.191 134.91 138.341C134.985 138.48 135.028 138.662 135.028 138.877V140.184H134.728V138.909C134.728 138.673 134.664 138.491 134.546 138.373C134.428 138.255 134.256 138.191 134.042 138.191C133.881 138.191 133.742 138.223 133.624 138.287C133.506 138.352 133.41 138.448 133.346 138.566C133.281 138.684 133.249 138.834 133.249 139.005V140.184H132.949H132.96Z" fill="black"/>
<path d="M136.775 140.205C136.561 140.205 136.368 140.152 136.186 140.055C136.015 139.959 135.875 139.82 135.779 139.648C135.682 139.477 135.629 139.273 135.629 139.059C135.629 138.845 135.682 138.63 135.779 138.459C135.875 138.287 136.015 138.148 136.186 138.052C136.358 137.955 136.55 137.902 136.775 137.902C137 137.902 137.193 137.955 137.365 138.052C137.536 138.148 137.675 138.287 137.772 138.459C137.868 138.63 137.922 138.823 137.922 139.059C137.922 139.295 137.868 139.477 137.772 139.648C137.675 139.82 137.536 139.959 137.365 140.055C137.193 140.152 136.99 140.205 136.775 140.205ZM136.775 139.937C136.936 139.937 137.086 139.905 137.204 139.83C137.333 139.755 137.429 139.659 137.504 139.52C137.579 139.38 137.611 139.23 137.611 139.059C137.611 138.887 137.579 138.727 137.504 138.598C137.429 138.47 137.333 138.362 137.204 138.287C137.075 138.212 136.936 138.18 136.775 138.18C136.615 138.18 136.475 138.212 136.347 138.287C136.218 138.362 136.122 138.459 136.047 138.598C135.972 138.727 135.94 138.887 135.94 139.059C135.94 139.23 135.972 139.391 136.047 139.52C136.122 139.648 136.218 139.755 136.347 139.83C136.475 139.905 136.615 139.937 136.775 139.937Z" fill="black"/>
<path d="M138.94 140.184L138.094 137.934H138.383L139.155 140.023H139.026L139.819 137.934H140.076L140.858 140.023H140.73L141.512 137.934H141.79L140.933 140.184H140.644L139.894 138.223H139.98L139.219 140.184H138.93H138.94Z" fill="black"/>
</g>
<path d="M170.753 146.366H85.9651C81.1303 146.366 77.2109 150.286 77.2109 155.121V155.131C77.2109 159.966 81.1303 163.886 85.9651 163.886H170.753C175.588 163.886 179.508 159.966 179.508 155.131V155.121C179.508 150.286 175.588 146.366 170.753 146.366Z" fill="url(#paint2_linear_11490_7118)"/>
<g opacity="0.5">
<path d="M109.57 175.597V172.597H111.628V172.876H109.892V175.597H109.57ZM109.86 174.322V174.043H111.445V174.322H109.86Z" fill="black"/>
<path d="M113.064 175.618C112.85 175.618 112.657 175.565 112.475 175.468C112.304 175.372 112.164 175.233 112.068 175.061C111.972 174.89 111.918 174.686 111.918 174.472C111.918 174.258 111.972 174.043 112.068 173.872C112.164 173.7 112.304 173.561 112.475 173.465C112.647 173.368 112.839 173.315 113.064 173.315C113.289 173.315 113.482 173.358 113.654 173.465C113.825 173.561 113.965 173.7 114.061 173.872C114.157 174.043 114.211 174.247 114.211 174.472C114.211 174.697 114.157 174.89 114.061 175.061C113.965 175.233 113.825 175.372 113.654 175.468C113.482 175.565 113.279 175.618 113.064 175.618ZM113.064 175.34C113.225 175.34 113.375 175.308 113.493 175.233C113.622 175.158 113.718 175.061 113.793 174.922C113.868 174.783 113.9 174.633 113.9 174.461C113.9 174.29 113.868 174.129 113.793 174C113.718 173.872 113.622 173.765 113.493 173.69C113.365 173.615 113.225 173.583 113.064 173.583C112.904 173.583 112.764 173.615 112.636 173.69C112.507 173.765 112.411 173.861 112.336 174C112.261 174.129 112.229 174.29 112.229 174.461C112.229 174.633 112.261 174.793 112.336 174.922C112.411 175.051 112.507 175.158 112.636 175.233C112.764 175.308 112.904 175.34 113.064 175.34Z" fill="black"/>
<path d="M114.832 175.597V173.347H115.121V173.958L115.089 173.85C115.153 173.679 115.261 173.55 115.411 173.454C115.561 173.358 115.743 173.315 115.968 173.315V173.615C115.968 173.615 115.946 173.615 115.936 173.615C115.925 173.615 115.914 173.615 115.904 173.615C115.668 173.615 115.475 173.69 115.346 173.829C115.207 173.968 115.143 174.183 115.143 174.44V175.586H114.843L114.832 175.597Z" fill="black"/>
<path d="M117.405 175.511C117.191 175.511 116.998 175.469 116.827 175.372C116.655 175.276 116.516 175.147 116.42 174.986C116.323 174.826 116.27 174.633 116.27 174.419C116.27 174.204 116.323 174.011 116.42 173.851C116.516 173.69 116.655 173.561 116.827 173.465C116.998 173.379 117.191 173.326 117.405 173.326C117.609 173.326 117.78 173.368 117.941 173.454C118.102 173.54 118.23 173.658 118.327 173.818C118.423 173.979 118.466 174.183 118.466 174.419C118.466 174.654 118.423 174.847 118.327 175.019C118.23 175.179 118.102 175.308 117.941 175.394C117.78 175.479 117.598 175.522 117.405 175.522V175.511ZM117.459 176.444C117.255 176.444 117.052 176.411 116.87 176.358C116.677 176.294 116.527 176.208 116.409 176.101L116.559 175.865C116.666 175.961 116.795 176.036 116.955 176.09C117.116 176.144 117.277 176.176 117.448 176.176C117.737 176.176 117.941 176.111 118.08 175.972C118.209 175.844 118.284 175.629 118.284 175.351V174.794L118.327 174.408L118.295 174.022V173.336H118.584V175.308C118.584 175.694 118.488 175.983 118.295 176.165C118.102 176.347 117.823 176.433 117.448 176.433L117.459 176.444ZM117.427 175.244C117.587 175.244 117.737 175.211 117.866 175.136C117.995 175.072 118.091 174.965 118.166 174.847C118.241 174.729 118.273 174.579 118.273 174.419C118.273 174.258 118.241 174.108 118.166 173.99C118.091 173.861 117.995 173.765 117.866 173.701C117.737 173.626 117.587 173.593 117.427 173.593C117.266 173.593 117.116 173.626 116.987 173.701C116.859 173.776 116.752 173.872 116.687 173.99C116.612 174.108 116.58 174.258 116.58 174.419C116.58 174.579 116.612 174.729 116.687 174.847C116.762 174.976 116.859 175.072 116.987 175.136C117.116 175.211 117.266 175.244 117.427 175.244Z" fill="black"/>
<path d="M120.346 175.618C120.131 175.618 119.939 175.565 119.756 175.468C119.585 175.372 119.446 175.233 119.349 175.061C119.253 174.89 119.199 174.686 119.199 174.472C119.199 174.258 119.253 174.043 119.349 173.872C119.446 173.7 119.585 173.561 119.756 173.465C119.928 173.368 120.121 173.315 120.346 173.315C120.571 173.315 120.764 173.358 120.935 173.465C121.107 173.561 121.246 173.7 121.342 173.872C121.439 174.043 121.492 174.247 121.492 174.472C121.492 174.697 121.439 174.89 121.342 175.061C121.246 175.233 121.107 175.372 120.935 175.468C120.764 175.565 120.56 175.618 120.346 175.618ZM120.346 175.34C120.506 175.34 120.656 175.308 120.774 175.233C120.903 175.158 120.999 175.061 121.074 174.922C121.149 174.783 121.182 174.633 121.182 174.461C121.182 174.29 121.149 174.129 121.074 174C120.999 173.872 120.903 173.765 120.774 173.69C120.646 173.615 120.506 173.583 120.346 173.583C120.185 173.583 120.046 173.615 119.917 173.69C119.789 173.765 119.692 173.861 119.617 174C119.542 174.129 119.51 174.29 119.51 174.461C119.51 174.633 119.542 174.793 119.617 174.922C119.692 175.051 119.789 175.158 119.917 175.233C120.046 175.308 120.185 175.34 120.346 175.34Z" fill="black"/>
<path d="M121.766 173.593V173.336H123.159V173.593H121.766ZM122.826 175.619C122.612 175.619 122.451 175.565 122.334 175.447C122.216 175.329 122.162 175.169 122.162 174.965V172.854H122.462V174.954C122.462 175.083 122.494 175.19 122.559 175.254C122.623 175.329 122.719 175.361 122.848 175.361C122.987 175.361 123.094 175.319 123.18 175.244L123.287 175.458C123.223 175.511 123.159 175.554 123.073 175.576C122.987 175.597 122.901 175.619 122.816 175.619H122.826Z" fill="black"/>
<path d="M125.047 175.597V172.597H126.172C126.429 172.597 126.643 172.64 126.826 172.715C127.008 172.801 127.147 172.918 127.243 173.068C127.34 173.218 127.393 173.411 127.393 173.626C127.393 173.84 127.34 174.022 127.243 174.172C127.147 174.322 127.008 174.44 126.826 174.526C126.643 174.611 126.418 174.654 126.172 174.654H125.229L125.368 174.504V175.597H125.047ZM125.368 174.526L125.229 174.376H126.172C126.472 174.376 126.697 174.311 126.858 174.183C127.018 174.054 127.093 173.872 127.093 173.636C127.093 173.401 127.018 173.208 126.858 173.079C126.697 172.951 126.472 172.886 126.172 172.886H125.229L125.368 172.736V174.536V174.526Z" fill="black"/>
<path d="M128.634 175.618C128.462 175.618 128.323 175.586 128.194 175.533C128.066 175.479 127.98 175.404 127.905 175.297C127.83 175.19 127.809 175.083 127.809 174.954C127.809 174.836 127.841 174.729 127.894 174.633C127.948 174.536 128.044 174.461 128.173 174.397C128.301 174.333 128.473 174.311 128.687 174.311H129.459V174.536H128.687C128.473 174.536 128.323 174.579 128.237 174.654C128.151 174.729 128.109 174.826 128.109 174.943C128.109 175.072 128.162 175.179 128.259 175.254C128.355 175.329 128.494 175.372 128.677 175.372C128.848 175.372 128.998 175.329 129.116 175.254C129.244 175.179 129.33 175.061 129.384 174.911L129.448 175.126C129.394 175.276 129.287 175.393 129.148 175.479C129.009 175.565 128.827 175.608 128.612 175.608L128.634 175.618ZM129.405 175.597V175.018L129.394 174.183C129.394 173.99 129.341 173.84 129.234 173.743C129.127 173.636 128.966 173.593 128.752 173.593C128.602 173.593 128.462 173.615 128.334 173.668C128.205 173.722 128.087 173.786 128.001 173.861L127.862 173.636C127.98 173.54 128.109 173.465 128.269 173.411C128.43 173.358 128.602 173.336 128.773 173.336C129.062 173.336 129.287 173.411 129.448 173.55C129.609 173.69 129.684 173.915 129.684 174.204V175.597H129.394H129.405Z" fill="black"/>
<path d="M131.13 175.618C130.947 175.618 130.765 175.597 130.604 175.543C130.444 175.49 130.304 175.426 130.219 175.34L130.358 175.104C130.454 175.168 130.562 175.233 130.712 175.286C130.851 175.34 131.001 175.361 131.162 175.361C131.376 175.361 131.526 175.329 131.622 175.265C131.719 175.201 131.762 175.104 131.762 174.997C131.762 174.911 131.74 174.847 131.687 174.804C131.633 174.761 131.569 174.718 131.483 174.697C131.397 174.676 131.301 174.654 131.194 174.633C131.087 174.611 130.98 174.59 130.883 174.568C130.776 174.547 130.679 174.515 130.594 174.472C130.508 174.429 130.433 174.365 130.39 174.29C130.347 174.215 130.315 174.108 130.315 173.979C130.315 173.85 130.347 173.743 130.422 173.647C130.497 173.55 130.594 173.475 130.722 173.422C130.851 173.368 131.022 173.336 131.205 173.336C131.355 173.336 131.494 173.358 131.644 173.39C131.794 173.433 131.912 173.475 132.008 173.54L131.88 173.786C131.783 173.722 131.676 173.668 131.558 173.636C131.44 173.604 131.333 173.593 131.215 173.593C131.012 173.593 130.862 173.625 130.765 173.7C130.669 173.775 130.626 173.861 130.626 173.968C130.626 174.054 130.647 174.118 130.701 174.172C130.754 174.215 130.819 174.258 130.915 174.29C131.012 174.322 131.097 174.343 131.205 174.354C131.312 174.376 131.408 174.397 131.515 174.418C131.622 174.44 131.719 174.472 131.805 174.515C131.89 174.558 131.965 174.611 132.019 174.686C132.072 174.761 132.094 174.858 132.094 174.986C132.094 175.115 132.062 175.233 131.987 175.329C131.912 175.426 131.805 175.501 131.665 175.554C131.526 175.608 131.355 175.629 131.162 175.629L131.13 175.618Z" fill="black"/>
<path d="M133.215 175.618C133.033 175.618 132.851 175.597 132.69 175.543C132.53 175.49 132.39 175.426 132.305 175.34L132.444 175.104C132.54 175.168 132.648 175.233 132.798 175.286C132.937 175.34 133.087 175.361 133.248 175.361C133.462 175.361 133.612 175.329 133.708 175.265C133.805 175.201 133.848 175.104 133.848 174.997C133.848 174.911 133.826 174.847 133.773 174.804C133.719 174.761 133.655 174.718 133.569 174.697C133.483 174.676 133.387 174.654 133.28 174.633C133.173 174.611 133.065 174.59 132.969 174.568C132.862 174.547 132.765 174.515 132.68 174.472C132.594 174.429 132.519 174.365 132.476 174.29C132.433 174.215 132.401 174.108 132.401 173.979C132.401 173.85 132.433 173.743 132.508 173.647C132.583 173.55 132.68 173.475 132.808 173.422C132.937 173.368 133.108 173.336 133.29 173.336C133.44 173.336 133.58 173.358 133.73 173.39C133.88 173.433 133.998 173.475 134.094 173.54L133.966 173.786C133.869 173.722 133.762 173.668 133.644 173.636C133.526 173.604 133.419 173.593 133.301 173.593C133.098 173.593 132.948 173.625 132.851 173.7C132.755 173.775 132.712 173.861 132.712 173.968C132.712 174.054 132.733 174.118 132.787 174.172C132.84 174.215 132.905 174.258 133.001 174.29C133.098 174.322 133.183 174.343 133.29 174.354C133.398 174.376 133.494 174.397 133.601 174.418C133.708 174.44 133.805 174.472 133.891 174.515C133.976 174.558 134.051 174.611 134.105 174.686C134.158 174.761 134.18 174.858 134.18 174.986C134.18 175.115 134.148 175.233 134.073 175.329C133.998 175.426 133.891 175.501 133.751 175.554C133.612 175.608 133.44 175.629 133.248 175.629L133.215 175.618Z" fill="black"/>
<path d="M135.124 175.597L134.277 173.347H134.567L135.338 175.436H135.21L136.002 173.347H136.26L137.042 175.436H136.913L137.695 173.347H137.974L137.117 175.597H136.828L136.077 173.636H136.163L135.402 175.597H135.113H135.124Z" fill="black"/>
<path d="M139.283 175.618C139.069 175.618 138.876 175.565 138.694 175.468C138.522 175.372 138.383 175.233 138.287 175.061C138.19 174.89 138.137 174.686 138.137 174.472C138.137 174.258 138.19 174.043 138.287 173.872C138.383 173.7 138.522 173.561 138.694 173.465C138.865 173.368 139.058 173.315 139.283 173.315C139.508 173.315 139.701 173.358 139.873 173.465C140.044 173.561 140.183 173.7 140.28 173.872C140.376 174.043 140.43 174.247 140.43 174.472C140.43 174.697 140.376 174.89 140.28 175.061C140.183 175.233 140.044 175.372 139.873 175.468C139.701 175.565 139.498 175.618 139.283 175.618ZM139.283 175.34C139.444 175.34 139.594 175.308 139.712 175.233C139.84 175.158 139.937 175.061 140.012 174.922C140.087 174.783 140.119 174.633 140.119 174.461C140.119 174.29 140.087 174.129 140.012 174C139.937 173.872 139.84 173.765 139.712 173.69C139.583 173.615 139.444 173.583 139.283 173.583C139.123 173.583 138.983 173.615 138.855 173.69C138.726 173.765 138.63 173.861 138.555 174C138.48 174.129 138.447 174.29 138.447 174.461C138.447 174.633 138.48 174.793 138.555 174.922C138.63 175.051 138.726 175.158 138.855 175.233C138.983 175.308 139.123 175.34 139.283 175.34Z" fill="black"/>
<path d="M141.051 175.597V173.347H141.34V173.958L141.308 173.85C141.372 173.679 141.479 173.55 141.629 173.454C141.779 173.358 141.962 173.315 142.187 173.315V173.615C142.187 173.615 142.165 173.615 142.154 173.615C142.144 173.615 142.133 173.615 142.122 173.615C141.887 173.615 141.694 173.69 141.565 173.829C141.426 173.968 141.362 174.183 141.362 174.44V175.586H141.061L141.051 175.597Z" fill="black"/>
<path d="M143.609 175.618C143.395 175.618 143.202 175.576 143.031 175.468C142.859 175.361 142.731 175.233 142.634 175.061C142.538 174.89 142.484 174.686 142.484 174.461C142.484 174.236 142.538 174.033 142.634 173.861C142.731 173.69 142.87 173.561 143.031 173.465C143.202 173.368 143.395 173.325 143.609 173.325C143.802 173.325 143.984 173.368 144.134 173.454C144.295 173.54 144.413 173.668 144.51 173.84C144.606 174.011 144.649 174.215 144.649 174.461C144.649 174.708 144.606 174.911 144.51 175.083C144.413 175.254 144.295 175.383 144.134 175.479C143.974 175.576 143.802 175.618 143.599 175.618H143.609ZM143.631 175.34C143.792 175.34 143.931 175.308 144.059 175.233C144.188 175.158 144.285 175.061 144.36 174.922C144.435 174.783 144.467 174.633 144.467 174.461C144.467 174.29 144.435 174.129 144.36 174.001C144.285 173.872 144.188 173.765 144.059 173.69C143.931 173.615 143.792 173.583 143.631 173.583C143.47 173.583 143.331 173.615 143.202 173.69C143.074 173.765 142.977 173.861 142.902 174.001C142.827 174.129 142.795 174.29 142.795 174.461C142.795 174.633 142.827 174.793 142.902 174.922C142.977 175.051 143.074 175.158 143.202 175.233C143.331 175.308 143.47 175.34 143.631 175.34ZM144.477 175.597V174.922L144.51 174.472L144.467 174.022V172.425H144.767V175.608H144.477V175.597Z" fill="black"/>
<path d="M146.205 174.697C146.205 174.579 146.226 174.472 146.258 174.386C146.301 174.301 146.344 174.226 146.408 174.161C146.462 174.097 146.526 174.033 146.601 173.979C146.665 173.926 146.73 173.861 146.794 173.808C146.858 173.754 146.901 173.679 146.944 173.615C146.987 173.551 146.998 173.465 146.998 173.368C146.998 173.218 146.933 173.09 146.815 172.993C146.698 172.897 146.526 172.843 146.301 172.843C146.119 172.843 145.958 172.876 145.83 172.929C145.701 172.983 145.583 173.079 145.487 173.186L145.262 173.015C145.38 172.876 145.519 172.758 145.701 172.683C145.883 172.608 146.087 172.565 146.323 172.565C146.526 172.565 146.698 172.597 146.848 172.651C146.998 172.715 147.105 172.801 147.19 172.908C147.276 173.015 147.308 173.154 147.308 173.304C147.308 173.422 147.287 173.529 147.255 173.615C147.212 173.701 147.169 173.776 147.105 173.851C147.04 173.926 146.987 173.979 146.912 174.043C146.837 174.108 146.783 174.161 146.719 174.226C146.655 174.29 146.612 174.354 146.569 174.429C146.526 174.504 146.515 174.59 146.515 174.697H146.194H146.205ZM146.365 175.619C146.301 175.619 146.258 175.597 146.205 175.554C146.162 175.511 146.14 175.458 146.14 175.394C146.14 175.329 146.162 175.276 146.205 175.233C146.248 175.19 146.301 175.169 146.365 175.169C146.43 175.169 146.483 175.19 146.526 175.233C146.569 175.276 146.59 175.329 146.59 175.394C146.59 175.458 146.569 175.501 146.526 175.554C146.483 175.597 146.43 175.619 146.365 175.619Z" fill="black"/>
</g>
<path d="M116.953 157.842V151.842H117.81V157.092H121.057V157.842H116.953Z" fill="white"/>
<path d="M123.813 157.896C123.353 157.896 122.945 157.799 122.592 157.596C122.238 157.392 121.96 157.124 121.756 156.771C121.552 156.417 121.445 156.021 121.445 155.571C121.445 155.121 121.552 154.724 121.756 154.371C121.96 154.017 122.238 153.749 122.592 153.556C122.945 153.363 123.353 153.256 123.813 153.256C124.274 153.256 124.671 153.353 125.024 153.556C125.378 153.749 125.656 154.028 125.86 154.371C126.064 154.713 126.16 155.121 126.16 155.571C126.16 156.021 126.064 156.417 125.86 156.771C125.656 157.124 125.378 157.392 125.024 157.596C124.671 157.799 124.263 157.896 123.813 157.896ZM123.813 157.178C124.103 157.178 124.371 157.114 124.596 156.985C124.831 156.856 125.013 156.664 125.142 156.428C125.271 156.181 125.335 155.903 125.335 155.581C125.335 155.26 125.271 154.971 125.142 154.735C125.013 154.499 124.831 154.317 124.596 154.178C124.36 154.049 124.103 153.985 123.813 153.985C123.524 153.985 123.267 154.049 123.031 154.178C122.806 154.306 122.624 154.488 122.485 154.735C122.345 154.971 122.281 155.249 122.281 155.581C122.281 155.914 122.345 156.181 122.485 156.428C122.624 156.674 122.806 156.856 123.031 156.985C123.256 157.114 123.524 157.178 123.813 157.178Z" fill="white"/>
<path d="M129.19 157.66C128.751 157.66 128.355 157.564 128.012 157.382C127.669 157.199 127.39 156.931 127.187 156.61C126.983 156.278 126.887 155.892 126.887 155.464C126.887 155.035 126.983 154.638 127.187 154.306C127.39 153.974 127.669 153.728 128.012 153.535C128.355 153.353 128.751 153.256 129.19 153.256C129.576 153.256 129.93 153.331 130.251 153.492C130.573 153.653 130.83 153.888 131.023 154.221C131.216 154.553 131.312 154.96 131.312 155.453C131.312 155.946 131.216 156.353 131.023 156.674C130.83 156.996 130.573 157.242 130.251 157.403C129.93 157.564 129.576 157.649 129.19 157.649V157.66ZM129.298 159.557C128.88 159.557 128.473 159.503 128.087 159.385C127.69 159.267 127.38 159.096 127.133 158.882L127.53 158.249C127.744 158.432 128.001 158.582 128.312 158.678C128.623 158.785 128.944 158.839 129.276 158.839C129.812 158.839 130.208 158.71 130.455 158.464C130.701 158.217 130.83 157.832 130.83 157.317V156.353L130.916 155.453L130.873 154.542V153.299H131.655V157.221C131.655 158.024 131.451 158.614 131.055 158.989C130.658 159.364 130.069 159.557 129.298 159.557ZM129.287 156.931C129.587 156.931 129.855 156.867 130.091 156.739C130.326 156.61 130.508 156.439 130.648 156.214C130.776 155.989 130.851 155.731 130.851 155.442C130.851 155.153 130.787 154.896 130.648 154.671C130.508 154.446 130.326 154.274 130.091 154.156C129.855 154.028 129.587 153.974 129.287 153.974C128.987 153.974 128.708 154.038 128.473 154.156C128.237 154.274 128.055 154.456 127.915 154.671C127.787 154.896 127.712 155.153 127.712 155.442C127.712 155.731 127.776 155.989 127.915 156.214C128.055 156.439 128.237 156.61 128.473 156.739C128.708 156.867 128.976 156.931 129.287 156.931Z" fill="white"/>
<path d="M133.639 152.431C133.478 152.431 133.35 152.377 133.243 152.281C133.136 152.174 133.082 152.056 133.082 151.906C133.082 151.756 133.136 151.627 133.243 151.52C133.35 151.413 133.478 151.37 133.639 151.37C133.8 151.37 133.929 151.424 134.036 151.52C134.143 151.617 134.196 151.745 134.196 151.895C134.196 152.045 134.143 152.174 134.046 152.281C133.939 152.388 133.811 152.442 133.639 152.442V152.431ZM133.221 157.842V153.299H134.046V157.842H133.221Z" fill="white"/>
<path d="M135.621 157.842V153.299H136.414V154.521L136.285 154.199C136.435 153.899 136.66 153.674 136.971 153.503C137.282 153.342 137.636 153.256 138.053 153.256C138.428 153.256 138.75 153.331 139.039 153.471C139.318 153.61 139.543 153.835 139.704 154.124C139.864 154.413 139.939 154.788 139.939 155.228V157.842H139.114V155.324C139.114 154.885 139.007 154.553 138.793 154.328C138.578 154.103 138.278 153.996 137.893 153.996C137.603 153.996 137.346 154.049 137.132 154.167C136.918 154.285 136.746 154.446 136.628 154.671C136.51 154.896 136.457 155.174 136.457 155.506V157.842H135.632H135.621Z" fill="white"/>
<path d="M170.753 87.2086H85.9651C81.1303 87.2086 77.2109 91.128 77.2109 95.9628V95.9735C77.2109 100.808 81.1303 104.728 85.9651 104.728H170.753C175.588 104.728 179.508 100.808 179.508 95.9735V95.9628C179.508 91.128 175.588 87.2086 170.753 87.2086Z" fill="white"/>
<path d="M170.753 112.057H85.9651C81.1303 112.057 77.2109 115.976 77.2109 120.811V120.822C77.2109 125.657 81.1303 129.576 85.9651 129.576H170.753C175.588 129.576 179.508 125.657 179.508 120.822V120.811C179.508 115.976 175.588 112.057 170.753 112.057Z" fill="white"/>
<g opacity="0.5">
<path d="M89.0508 97.5486V93.7983H89.383L91.976 97.0557H91.8045V93.7983H92.201V97.5486H91.8688L89.2865 94.2912H89.458V97.5486H89.0615H89.0508Z" fill="black"/>
<path d="M94.1224 97.5701C93.9081 97.5701 93.7259 97.538 93.5759 97.463C93.4152 97.388 93.2973 97.2916 93.2223 97.1737C93.1366 97.0451 93.0938 96.9058 93.0938 96.7451C93.0938 96.5951 93.1259 96.4665 93.2009 96.3486C93.2652 96.2308 93.3831 96.1343 93.5438 96.0593C93.7045 95.9843 93.9188 95.9522 94.1867 95.9522H95.151V96.2308H94.1867C93.9188 96.2308 93.7259 96.2843 93.6188 96.3808C93.5116 96.4772 93.4581 96.5951 93.4581 96.7344C93.4581 96.8951 93.5223 97.0237 93.6402 97.1201C93.7688 97.2166 93.9402 97.2701 94.1653 97.2701C94.3903 97.2701 94.5617 97.2166 94.7224 97.1201C94.8832 97.0237 94.9903 96.8844 95.0653 96.6915L95.151 96.9594C95.076 97.1415 94.9582 97.2916 94.776 97.4094C94.5939 97.5166 94.3796 97.5701 94.1117 97.5701H94.1224ZM95.0867 97.5487V96.9272L95.0653 96.8308V95.7914C95.0653 95.5557 95.001 95.3628 94.8617 95.2343C94.7332 95.1057 94.5296 95.0414 94.2617 95.0414C94.0795 95.0414 93.9081 95.0735 93.7474 95.1271C93.5866 95.1807 93.4473 95.2664 93.3295 95.3736L93.158 95.0843C93.2973 94.9664 93.4688 94.87 93.6724 94.8057C93.8759 94.7414 94.0795 94.7092 94.3045 94.7092C94.6689 94.7092 94.9475 94.7949 95.151 94.9771C95.3546 95.1593 95.4511 95.4271 95.4511 95.8022V97.5487H95.0867Z" fill="black"/>
<path d="M96.4883 97.5487V94.7414H96.8526V95.5021L96.7883 95.3736C96.874 95.17 97.0133 95.0092 97.2062 94.8914C97.3991 94.7735 97.6241 94.7199 97.8812 94.7199C98.1598 94.7199 98.3956 94.7842 98.5884 94.9235C98.7813 95.0628 98.9099 95.2664 98.9635 95.545L98.8134 95.4807C98.8992 95.2557 99.0385 95.0628 99.2528 94.9235C99.4671 94.7842 99.7135 94.7092 100.003 94.7092C100.228 94.7092 100.431 94.7521 100.603 94.8378C100.774 94.9235 100.903 95.0628 100.999 95.2343C101.096 95.4164 101.139 95.6414 101.139 95.9093V97.538H100.764V95.9415C100.764 95.6414 100.689 95.4164 100.549 95.2664C100.41 95.1164 100.206 95.0414 99.9492 95.0414C99.7564 95.0414 99.5849 95.0843 99.4456 95.1593C99.3063 95.2343 99.1992 95.3521 99.1242 95.5021C99.0492 95.6522 99.0063 95.8343 99.0063 96.0486V97.5273H98.6313V95.9307C98.6313 95.6307 98.5563 95.4057 98.417 95.2557C98.2777 95.1057 98.0741 95.0307 97.8169 95.0307C97.6241 95.0307 97.4633 95.0735 97.3241 95.1485C97.1848 95.2235 97.0669 95.3414 96.9919 95.4914C96.9169 95.6414 96.874 95.8236 96.874 96.0379V97.5166H96.499L96.4883 97.5487Z" fill="black"/>
<path d="M103.369 97.5701C103.08 97.5701 102.823 97.5059 102.598 97.388C102.373 97.2594 102.201 97.0987 102.073 96.8737C101.944 96.6486 101.891 96.4129 101.891 96.1343C101.891 95.8557 101.955 95.6093 102.073 95.395C102.191 95.1807 102.362 95.0092 102.566 94.8914C102.78 94.7735 103.005 94.7092 103.273 94.7092C103.541 94.7092 103.776 94.7735 103.98 94.8914C104.184 95.0092 104.344 95.1807 104.462 95.395C104.58 95.6093 104.644 95.8557 104.644 96.145C104.644 96.1665 104.644 96.1772 104.644 96.1986C104.644 96.22 104.644 96.2415 104.644 96.2629H102.191V95.9736H104.441L104.291 96.0808C104.291 95.8772 104.248 95.695 104.162 95.5343C104.076 95.3736 103.959 95.2557 103.809 95.1593C103.659 95.0735 103.487 95.0307 103.294 95.0307C103.101 95.0307 102.93 95.0735 102.769 95.1593C102.619 95.245 102.501 95.3736 102.416 95.5343C102.33 95.695 102.287 95.8772 102.287 96.0915V96.1558C102.287 96.3701 102.33 96.5629 102.426 96.7237C102.523 96.8844 102.651 97.013 102.823 97.0987C102.994 97.1844 103.187 97.238 103.401 97.238C103.573 97.238 103.734 97.2058 103.884 97.1523C104.034 97.0987 104.162 97.0022 104.269 96.8737L104.484 97.1201C104.355 97.2701 104.205 97.388 104.012 97.463C103.819 97.538 103.616 97.5809 103.391 97.5809L103.369 97.5701Z" fill="black"/>
<path d="M107.635 98.6202C107.271 98.6202 106.928 98.5559 106.628 98.438C106.328 98.3202 106.06 98.1487 105.846 97.9344C105.632 97.7201 105.46 97.463 105.342 97.1629C105.224 96.8629 105.16 96.5415 105.16 96.1879C105.16 95.8343 105.224 95.5021 105.342 95.2128C105.46 94.9235 105.632 94.6663 105.857 94.452C106.082 94.2377 106.35 94.0663 106.65 93.9484C106.96 93.8306 107.292 93.777 107.667 93.777C108.043 93.777 108.364 93.8306 108.664 93.9484C108.964 94.0663 109.232 94.227 109.446 94.4306C109.671 94.6342 109.843 94.8913 109.961 95.1806C110.078 95.47 110.143 95.7914 110.143 96.145C110.143 96.445 110.111 96.7022 110.036 96.9165C109.961 97.1308 109.864 97.3022 109.735 97.4094C109.607 97.5272 109.446 97.5808 109.264 97.5808C109.082 97.5808 108.932 97.5272 108.825 97.4201C108.718 97.3129 108.664 97.1522 108.664 96.9486V96.52L108.707 96.1771L108.653 95.6414V94.8271H109.007V96.8629C109.007 97.0129 109.039 97.1201 109.103 97.1736C109.168 97.2379 109.243 97.2701 109.339 97.2701C109.446 97.2701 109.543 97.2272 109.628 97.1415C109.714 97.0558 109.778 96.9272 109.821 96.7558C109.864 96.5843 109.885 96.3807 109.885 96.145C109.885 95.8343 109.832 95.545 109.725 95.2878C109.618 95.0306 109.468 94.8056 109.275 94.6235C109.082 94.4413 108.846 94.2913 108.578 94.1949C108.31 94.0984 108.01 94.0449 107.689 94.0449C107.367 94.0449 107.067 94.0984 106.789 94.2056C106.521 94.3127 106.285 94.452 106.092 94.6449C105.899 94.8378 105.749 95.0628 105.642 95.3199C105.535 95.5771 105.482 95.8771 105.482 96.1879C105.482 96.4986 105.535 96.7986 105.642 97.0558C105.749 97.3237 105.899 97.5487 106.092 97.7416C106.285 97.9344 106.521 98.0844 106.789 98.1916C107.057 98.2987 107.357 98.3523 107.678 98.3523C107.839 98.3523 108.01 98.3309 108.193 98.288C108.375 98.2452 108.546 98.1916 108.707 98.1059L108.793 98.3737C108.632 98.4595 108.45 98.513 108.246 98.5559C108.043 98.5988 107.85 98.6202 107.678 98.6202H107.635ZM107.571 97.5701C107.314 97.5701 107.089 97.5058 106.885 97.388C106.682 97.2701 106.532 97.0986 106.414 96.8951C106.296 96.6915 106.242 96.445 106.242 96.1771C106.242 95.9093 106.296 95.6735 106.414 95.4592C106.532 95.2449 106.692 95.0949 106.885 94.9663C107.089 94.8485 107.314 94.7842 107.571 94.7842C107.828 94.7842 108.032 94.8378 108.225 94.9556C108.418 95.0628 108.568 95.2235 108.675 95.4271C108.782 95.6307 108.835 95.8771 108.835 96.1664C108.835 96.4557 108.782 96.7022 108.675 96.9058C108.568 97.1094 108.418 97.2701 108.225 97.388C108.032 97.5058 107.817 97.5594 107.571 97.5594V97.5701ZM107.625 97.2594C107.817 97.2594 107.989 97.2165 108.15 97.1308C108.31 97.0451 108.428 96.9165 108.514 96.7558C108.6 96.595 108.643 96.4022 108.643 96.1879C108.643 95.9736 108.6 95.7807 108.514 95.62C108.428 95.4592 108.3 95.3414 108.15 95.2449C107.989 95.1592 107.817 95.1164 107.625 95.1164C107.432 95.1164 107.25 95.1592 107.089 95.2449C106.939 95.3307 106.81 95.4592 106.725 95.62C106.639 95.7807 106.596 95.9628 106.596 96.1771C106.596 96.3914 106.639 96.5843 106.725 96.7343C106.81 96.8843 106.928 97.0236 107.089 97.1094C107.239 97.1951 107.421 97.2487 107.625 97.2487V97.2594Z" fill="black"/>
<path d="M110.945 97.5487V94.7414H111.31V95.5021L111.245 95.3736C111.331 95.17 111.47 95.0092 111.663 94.8914C111.856 94.7735 112.081 94.7199 112.338 94.7199C112.617 94.7199 112.853 94.7842 113.045 94.9235C113.238 95.0628 113.367 95.2664 113.42 95.545L113.27 95.4807C113.356 95.2557 113.495 95.0628 113.71 94.9235C113.924 94.7842 114.171 94.7092 114.46 94.7092C114.685 94.7092 114.888 94.7521 115.06 94.8378C115.231 94.9235 115.36 95.0628 115.456 95.2343C115.553 95.4164 115.596 95.6414 115.596 95.9093V97.538H115.221V95.9415C115.221 95.6414 115.146 95.4164 115.006 95.2664C114.867 95.1164 114.663 95.0414 114.406 95.0414C114.213 95.0414 114.042 95.0843 113.903 95.1593C113.763 95.2343 113.656 95.3521 113.581 95.5021C113.506 95.6522 113.463 95.8343 113.463 96.0486V97.5273H113.088V95.9307C113.088 95.6307 113.013 95.4057 112.874 95.2557C112.735 95.1057 112.531 95.0307 112.274 95.0307C112.081 95.0307 111.92 95.0735 111.781 95.1485C111.642 95.2235 111.524 95.3414 111.449 95.4914C111.374 95.6414 111.331 95.8236 111.331 96.0379V97.5166H110.956L110.945 97.5487Z" fill="black"/>
<path d="M117.419 97.5701C117.205 97.5701 117.023 97.538 116.873 97.463C116.712 97.388 116.594 97.2916 116.519 97.1737C116.433 97.0451 116.391 96.9058 116.391 96.7451C116.391 96.5951 116.423 96.4665 116.498 96.3486C116.562 96.2308 116.68 96.1343 116.841 96.0593C117.001 95.9843 117.216 95.9522 117.484 95.9522H118.448V96.2308H117.484C117.216 96.2308 117.023 96.2843 116.916 96.3808C116.809 96.4772 116.755 96.5951 116.755 96.7344C116.755 96.8951 116.819 97.0237 116.937 97.1201C117.066 97.2166 117.237 97.2701 117.462 97.2701C117.687 97.2701 117.859 97.2166 118.019 97.1201C118.18 97.0237 118.287 96.8844 118.362 96.6915L118.448 96.9594C118.373 97.1415 118.255 97.2916 118.073 97.4094C117.891 97.5166 117.676 97.5701 117.409 97.5701H117.419ZM118.394 97.5487V96.9272L118.373 96.8308V95.7914C118.373 95.5557 118.309 95.3628 118.169 95.2343C118.041 95.1057 117.837 95.0414 117.569 95.0414C117.387 95.0414 117.216 95.0735 117.055 95.1271C116.894 95.1807 116.755 95.2664 116.637 95.3736L116.466 95.0843C116.605 94.9664 116.776 94.87 116.98 94.8057C117.184 94.7414 117.387 94.7092 117.612 94.7092C117.976 94.7092 118.255 94.7949 118.459 94.9771C118.662 95.1593 118.759 95.4271 118.759 95.8022V97.5487H118.394Z" fill="black"/>
<path d="M119.982 94.1092C119.907 94.1092 119.842 94.0878 119.789 94.0342C119.735 93.9807 119.703 93.9164 119.703 93.8414C119.703 93.7664 119.725 93.7021 119.789 93.6485C119.842 93.5949 119.907 93.5735 119.982 93.5735C120.057 93.5735 120.132 93.5949 120.185 93.6485C120.239 93.7021 120.271 93.7556 120.271 93.8414C120.271 93.9271 120.25 93.9807 120.196 94.045C120.142 94.0985 120.078 94.12 119.992 94.12L119.982 94.1092ZM119.789 97.5488V94.7414H120.164V97.5488H119.789Z" fill="black"/>
<path d="M121.23 97.5488V93.5735H121.606V97.5488H121.23Z" fill="black"/>
<path d="M122.708 97.5711C122.633 97.5711 122.558 97.5389 122.504 97.4852C122.45 97.4315 122.418 97.3564 122.418 97.2813C122.418 97.2061 122.45 97.1203 122.504 97.0773C122.558 97.0237 122.622 96.9915 122.708 96.9915C122.794 96.9915 122.858 97.0129 122.912 97.0773C122.965 97.131 122.998 97.1954 122.998 97.2813C122.998 97.3671 122.965 97.4315 122.912 97.4852C122.858 97.5389 122.794 97.5711 122.708 97.5711Z" fill="black"/>
<path d="M124.896 97.5701C124.617 97.5701 124.371 97.5059 124.146 97.388C123.921 97.2594 123.749 97.0987 123.631 96.8737C123.514 96.6486 123.449 96.4129 123.449 96.1343C123.449 95.8557 123.514 95.5986 123.631 95.395C123.76 95.1807 123.931 95.0092 124.146 94.8914C124.36 94.7735 124.617 94.7092 124.896 94.7092C125.131 94.7092 125.346 94.7521 125.539 94.8485C125.732 94.945 125.882 95.0843 125.999 95.2664L125.71 95.4593C125.614 95.32 125.496 95.2128 125.356 95.1485C125.217 95.0843 125.056 95.0521 124.885 95.0521C124.681 95.0521 124.51 95.095 124.349 95.1914C124.189 95.2771 124.06 95.4057 123.974 95.5771C123.878 95.7379 123.835 95.9307 123.835 96.1558C123.835 96.3808 123.878 96.5736 123.974 96.7344C124.071 96.8951 124.189 97.0237 124.349 97.1201C124.51 97.2058 124.692 97.2594 124.885 97.2594C125.056 97.2594 125.206 97.2273 125.356 97.163C125.496 97.0987 125.614 96.9915 125.71 96.8522L125.999 97.0451C125.892 97.2273 125.732 97.3666 125.539 97.463C125.346 97.5594 125.131 97.6023 124.896 97.6023V97.5701Z" fill="black"/>
<path d="M127.843 97.5701C127.575 97.5701 127.329 97.5059 127.114 97.388C126.9 97.2594 126.729 97.0987 126.6 96.8737C126.472 96.6486 126.418 96.4129 126.418 96.1343C126.418 95.8557 126.482 95.5986 126.6 95.395C126.729 95.1807 126.9 95.0092 127.114 94.8914C127.329 94.7735 127.575 94.7092 127.854 94.7092C128.132 94.7092 128.379 94.7735 128.593 94.8914C128.807 95.0092 128.979 95.1807 129.107 95.395C129.236 95.6093 129.29 95.8557 129.29 96.1343C129.29 96.4129 129.225 96.6594 129.107 96.8737C128.99 97.088 128.818 97.2594 128.593 97.388C128.379 97.5059 128.132 97.5701 127.854 97.5701H127.843ZM127.843 97.238C128.047 97.238 128.229 97.1951 128.379 97.0987C128.54 97.013 128.657 96.8737 128.754 96.7129C128.84 96.5415 128.893 96.3593 128.893 96.1343C128.893 95.9093 128.85 95.7164 128.754 95.5557C128.657 95.395 128.54 95.2664 128.379 95.17C128.218 95.0843 128.047 95.0307 127.843 95.0307C127.639 95.0307 127.468 95.0735 127.307 95.17C127.147 95.2557 127.029 95.3843 126.932 95.5557C126.836 95.7164 126.793 95.9093 126.793 96.1343C126.793 96.3593 126.836 96.5415 126.932 96.7129C127.029 96.8737 127.147 97.0022 127.307 97.0987C127.468 97.1844 127.639 97.238 127.843 97.238Z" fill="black"/>
<path d="M130.051 97.5487V94.7414H130.415V95.5021L130.351 95.3736C130.437 95.17 130.576 95.0092 130.769 94.8914C130.962 94.7735 131.187 94.7199 131.444 94.7199C131.722 94.7199 131.958 94.7842 132.151 94.9235C132.344 95.0628 132.472 95.2664 132.526 95.545L132.376 95.4807C132.462 95.2557 132.601 95.0628 132.815 94.9235C133.03 94.7842 133.276 94.7092 133.565 94.7092C133.79 94.7092 133.994 94.7521 134.165 94.8378C134.337 94.9235 134.465 95.0628 134.562 95.2343C134.658 95.4164 134.701 95.6414 134.701 95.9093V97.538H134.326V95.9415C134.326 95.6414 134.251 95.4164 134.112 95.2664C133.972 95.1164 133.769 95.0414 133.512 95.0414C133.319 95.0414 133.147 95.0843 133.008 95.1593C132.869 95.2343 132.762 95.3521 132.687 95.5021C132.612 95.6522 132.569 95.8343 132.569 96.0486V97.5273H132.194V95.9307C132.194 95.6307 132.119 95.4057 131.979 95.2557C131.84 95.1057 131.637 95.0307 131.379 95.0307C131.187 95.0307 131.026 95.0735 130.887 95.1485C130.747 95.2235 130.629 95.3414 130.554 95.4914C130.479 95.6414 130.437 95.8236 130.437 96.0379V97.5166H130.061L130.051 97.5487Z" fill="black"/>
</g>
<g opacity="0.5">
<path d="M89.7198 122.729V121.582L89.8056 121.625L88.7876 122.215L88.6055 121.904L89.6448 121.315V121.432L88.6055 120.843L88.7876 120.532L89.8056 121.122L89.7306 121.165V120.018H90.0734V121.165L89.9877 121.122L91.0056 120.532L91.1771 120.843L90.1377 121.432V121.315L91.1771 121.904L91.0056 122.215L89.9877 121.625L90.0734 121.582V122.729H89.7306H89.7198Z" fill="black"/>
<path d="M92.7628 122.729V121.582L92.8485 121.625L91.8306 122.215L91.6484 121.904L92.6878 121.315V121.432L91.6484 120.843L91.8306 120.532L92.8485 121.122L92.7735 121.165V120.018H93.1164V121.165L93.0307 121.122L94.0486 120.532L94.22 120.843L93.1807 121.432V121.315L94.22 121.904L94.0486 122.215L93.0307 121.625L93.1164 121.582V122.729H92.7735H92.7628Z" fill="black"/>
<path d="M95.8058 122.729V121.582L95.8915 121.625L94.8736 122.215L94.6914 121.904L95.7308 121.315V121.432L94.6914 120.843L94.8736 120.532L95.8915 121.122L95.8165 121.165V120.018H96.1594V121.165L96.0736 121.122L97.0916 120.532L97.263 120.843L96.2237 121.432V121.315L97.263 121.904L97.0916 122.215L96.0736 121.625L96.1594 121.582V122.729H95.8165H95.8058Z" fill="black"/>
<path d="M98.8487 122.729V121.582L98.9345 121.625L97.9165 122.215L97.7344 121.904L98.7737 121.315V121.432L97.7344 120.843L97.9165 120.532L98.9345 121.122L98.8595 121.165V120.018H99.2023V121.165L99.1166 121.122L100.135 120.532L100.306 120.843L99.2666 121.432V121.315L100.306 121.904L100.135 122.215L99.1166 121.625L99.2023 121.582V122.729H98.8595H98.8487Z" fill="black"/>
<path d="M101.892 122.729V121.582L101.977 121.625L100.959 122.215L100.777 121.904L101.817 121.315V121.432L100.777 120.843L100.959 120.532L101.977 121.122L101.902 121.165V120.018H102.245V121.165L102.16 121.122L103.178 120.532L103.349 120.843L102.31 121.432V121.315L103.349 121.904L103.178 122.215L102.16 121.625L102.245 121.582V122.729H101.902H101.892Z" fill="black"/>
<path d="M104.946 122.729V121.582L105.032 121.625L104.014 122.215L103.832 121.904L104.871 121.315V121.432L103.832 120.843L104.014 120.532L105.032 121.122L104.957 121.165V120.018H105.3V121.165L105.214 121.122L106.232 120.532L106.404 120.843L105.364 121.432V121.315L106.404 121.904L106.232 122.215L105.214 121.625L105.3 121.582V122.729H104.957H104.946Z" fill="black"/>
<path d="M107.989 122.729V121.582L108.075 121.625L107.057 122.215L106.875 121.904L107.914 121.315V121.432L106.875 120.843L107.057 120.532L108.075 121.122L108 121.165V120.018H108.343V121.165L108.257 121.122L109.275 120.532L109.447 120.843L108.407 121.432V121.315L109.447 121.904L109.275 122.215L108.257 121.625L108.343 121.582V122.729H108H107.989Z" fill="black"/>
</g>
<path opacity="0.2" d="M161.508 91.859V100.088H173.166V91.859H161.508ZM171.269 92.7591L167.348 95.4378L163.426 92.7591H171.28H171.269ZM162.408 99.1881V93.1555L167.337 96.5201L172.266 93.1555V99.1881H162.408Z" fill="black"/>
<g opacity="0.2">
<path d="M170.089 119.45V118.454C170.089 117.2 169.071 116.171 167.807 116.171H166.564C165.31 116.171 164.281 117.189 164.281 118.454V119.45H162.406V126.286H172.264V119.45H170.089ZM165.181 118.454C165.181 117.693 165.803 117.071 166.564 117.071H167.807C168.567 117.071 169.189 117.693 169.189 118.454V119.45H165.181V118.454ZM171.364 125.386H163.306V120.34H171.364V125.386Z" fill="black"/>
<path d="M167.08 123.147V123.961H167.595V123.147C167.745 123.061 167.841 122.9 167.841 122.718C167.841 122.44 167.616 122.204 167.327 122.204C167.038 122.204 166.812 122.429 166.812 122.718C166.812 122.9 166.92 123.061 167.059 123.147H167.08Z" fill="black"/>
</g>
<path d="M40.9202 203.178C40.9202 203.178 39.4308 192.281 32.466 191.081C25.4905 189.891 27.6014 184.619 25.7798 182.573C23.9583 180.537 19.2222 186.548 23.2832 192.388C27.3442 198.217 24.0226 196.384 25.7798 201.806C27.5371 207.228 41.5631 212.211 40.9202 203.178Z" fill="#263238"/>
<path opacity="0.2" d="M40.9202 203.178C40.9202 203.178 39.4308 192.281 32.466 191.081C25.4905 189.891 27.6014 184.619 25.7798 182.573C23.9583 180.537 19.2222 186.548 23.2832 192.388C27.3442 198.217 24.0226 196.384 25.7798 201.806C27.5371 207.228 41.5631 212.211 40.9202 203.178Z" fill="white"/>
<path d="M40.6303 210.25C40.6303 210.25 35.2835 199.149 38.0909 181.019C40.8982 162.9 51.4311 155.86 42.2697 135.919C33.1084 115.979 22.6505 101.76 27.8794 87.6052" stroke="#263238" stroke-width="0.964355" stroke-linecap="round" stroke-linejoin="round"/>
<path d="M36.6053 208.074C36.6053 208.074 32.0942 201.281 38.5983 197.788C45.1023 194.295 46.4095 197.102 50.4277 194.595C54.4565 192.088 57.4996 186.001 58.1854 189.891C58.8711 193.781 54.2208 196.009 55.8709 197.788C57.5103 199.567 44.9309 211.128 36.6053 208.074Z" fill="#263238"/>
<path d="M25.9741 93.2734C25.9741 93.2734 21.5809 79.9332 31.5673 79.6546C41.5538 79.376 30.5494 91.8591 25.9741 93.2734Z" fill="#263238"/>
<path d="M34.6523 103.538C34.6523 103.538 37.6311 91.409 44.7138 93.9591C51.7964 96.52 41.7136 103.753 34.6523 103.538Z" fill="#263238"/>
<path d="M22.6294 104.589C22.6294 104.589 23.7009 94.9022 16.179 94.7093C8.657 94.5164 12.0108 103.024 22.6294 104.589Z" fill="#263238"/>
<path d="M27.6358 124.336C27.6358 124.336 17.5422 115.336 13.9098 122.033C10.2774 128.73 21.5282 130.123 27.6358 124.336Z" fill="#263238"/>
<path d="M45.4883 122.74C45.4883 122.74 47.3848 107.792 55.539 112.485C63.6932 117.168 52.5924 124.24 45.4883 122.74Z" fill="#263238"/>
<path d="M52.6655 144.138C52.6655 144.138 46.6436 129.04 57.8301 130.744C69.0167 132.448 60.5625 140.473 52.6655 144.138Z" fill="#263238"/>
<path d="M35.5002 149.527C35.5002 149.527 26.0496 138.395 18.8383 141.93C11.6164 145.456 17.5204 156.524 35.5002 149.527Z" fill="#263238"/>
<path d="M44.0703 174.183C44.0703 174.183 52.1173 156.31 59.275 162.332C66.4326 168.354 54.7104 177.354 44.0703 174.183Z" fill="#263238"/>
<path d="M32.3776 173.133C32.3776 173.133 34.4992 159.267 26.5379 160.382C18.5766 161.496 20.666 169.972 32.3776 173.133Z" fill="#263238"/>
<g opacity="0.2">
<path d="M25.9741 93.2734C25.9741 93.2734 21.5809 79.9332 31.5673 79.6546C41.5538 79.376 30.5494 91.8591 25.9741 93.2734Z" fill="white"/>
<path d="M34.6523 103.538C34.6523 103.538 37.6311 91.409 44.7138 93.9591C51.7964 96.52 41.7136 103.753 34.6523 103.538Z" fill="white"/>
<path d="M22.6294 104.589C22.6294 104.589 23.7009 94.9022 16.179 94.7093C8.657 94.5164 12.0108 103.024 22.6294 104.589Z" fill="white"/>
<path d="M27.6358 124.336C27.6358 124.336 17.5422 115.336 13.9098 122.033C10.2774 128.73 21.5282 130.123 27.6358 124.336Z" fill="white"/>
<path d="M45.4883 122.74C45.4883 122.74 47.3848 107.792 55.539 112.485C63.6932 117.168 52.5924 124.24 45.4883 122.74Z" fill="white"/>
<path d="M52.6655 144.138C52.6655 144.138 46.6436 129.04 57.8301 130.744C69.0167 132.448 60.5625 140.473 52.6655 144.138Z" fill="white"/>
<path d="M35.5002 149.527C35.5002 149.527 26.0496 138.395 18.8383 141.93C11.6164 145.456 17.5204 156.524 35.5002 149.527Z" fill="white"/>
<path d="M44.0703 174.183C44.0703 174.183 52.1173 156.31 59.275 162.332C66.4326 168.354 54.7104 177.354 44.0703 174.183Z" fill="white"/>
<path d="M32.3776 173.133C32.3776 173.133 34.4992 159.267 26.5379 160.382C18.5766 161.496 20.666 169.972 32.3776 173.133Z" fill="white"/>
</g>
<path d="M20.1211 101.417C20.1211 101.417 24.4178 107.803 30.2897 111.093C30.2897 111.093 34.1792 103.592 37.2116 101.77" stroke="#263238" stroke-width="0.964355" stroke-linecap="round" stroke-linejoin="round"/>
<path d="M19.8789 123.447C19.8789 123.447 30.7975 123.093 39.4446 129.63C39.4446 129.63 44.2449 121.497 50.5454 117.779" stroke="#263238" stroke-width="0.964355" stroke-linecap="round" stroke-linejoin="round"/>
<path d="M55.9536 136.991C55.9536 136.991 51.2604 149.335 45.2814 154.135C45.2814 154.135 32.8734 146.945 23.7656 146.763" stroke="#263238" stroke-width="0.964355" stroke-linecap="round" stroke-linejoin="round"/>
<path d="M27.4609 164.882C27.4609 164.882 33.5899 176.851 38.1653 179.465C38.1653 179.465 42.4406 173.433 51.6877 170.658" stroke="#263238" stroke-width="0.964355" stroke-linecap="round" stroke-linejoin="round"/>
<path d="M37.2961 206.456C37.2961 206.456 33.4279 200.306 29.0669 199.427C24.7059 198.549 22.82 193.523 21.2128 196.545C19.6055 199.567 24.0416 209.596 37.2961 206.446V206.456Z" fill="#263238"/>
<path d="M17.2399 230.598H59.4358L62.2646 204.571H14.4219L17.2399 230.598Z" fill="url(#paint3_linear_11490_7118)"/>
<path d="M13.4369 209.5H63.2511L63.8833 203.981H12.8047L13.4369 209.5Z" fill="url(#paint4_linear_11490_7118)"/>
<path opacity="0.3" d="M13.4369 209.5H63.2511L63.8833 203.981H12.8047L13.4369 209.5Z" fill="white"/>
</g>
<defs>
<linearGradient id="paint0_linear_11490_7118" x1="50.0195" y1="10.0188" x2="331.214" y2="76.6909" gradientUnits="userSpaceOnUse">
<stop stop-color="#00969E"/>
<stop offset="1" stop-color="#09C6B2"/>
</linearGradient>
<linearGradient id="paint1_linear_11490_7118" x1="107.324" y1="38.4858" x2="179.603" y2="61.7627" gradientUnits="userSpaceOnUse">
<stop stop-color="#00969E"/>
<stop offset="1" stop-color="#09C6B2"/>
</linearGradient>
<linearGradient id="paint2_linear_11490_7118" x1="77.2109" y1="147.142" x2="119.972" y2="227.532" gradientUnits="userSpaceOnUse">
<stop stop-color="#00969E"/>
<stop offset="1" stop-color="#09C6B2"/>
</linearGradient>
<linearGradient id="paint3_linear_11490_7118" x1="14.4219" y1="205.723" x2="81.5796" y2="245.469" gradientUnits="userSpaceOnUse">
<stop stop-color="#00969E"/>
<stop offset="1" stop-color="#09C6B2"/>
</linearGradient>
<linearGradient id="paint4_linear_11490_7118" x1="12.8047" y1="204.226" x2="22.6022" y2="233.424" gradientUnits="userSpaceOnUse">
<stop stop-color="#00969E"/>
<stop offset="1" stop-color="#09C6B2"/>
</linearGradient>
<clipPath id="clip0_11490_7118">
<rect width="217.361" height="229.999" fill="white" transform="translate(0.320312 0.598877)"/>
</clipPath>
</defs>
</svg>
